<svg width="56" height="56" viewBox="0 0 56 56" fill="none" xmlns="http://www.w3.org/2000/svg" class="h-24 w-24"><path d="M19.2967 53.0832H9.87C5.18 53.0832 2.91667 50.9132 2.91667 46.4332V9.5665C2.91667 5.0865 5.20333 2.9165 9.87 2.9165H19.2967C23.9867 2.9165 26.25 5.0865 26.25 9.5665V46.4332C26.25 50.9132 23.9633 53.0832 19.2967 53.0832ZM9.87 6.4165C6.90667 6.4165 6.41667 7.20984 6.41667 9.5665V46.4332C6.41667 48.7898 6.90667 49.5832 9.87 49.5832H19.2967C22.26 49.5832 22.75 48.7898 22.75 46.4332V9.5665C22.75 7.20984 22.26 6.4165 19.2967 6.4165H9.87Z" fill="#0782DA"></path><path d="M46.13 32.0832H36.7033C32.0133 32.0832 29.75 29.9132 29.75 25.4332V9.5665C29.75 5.0865 32.0367 2.9165 36.7033 2.9165H46.13C50.82 2.9165 53.0833 5.0865 53.0833 9.5665V25.4332C53.0833 29.9132 50.7967 32.0832 46.13 32.0832ZM36.7033 6.4165C33.74 6.4165 33.25 7.20984 33.25 9.5665V25.4332C33.25 27.7898 33.74 28.5832 36.7033 28.5832H46.13C49.0933 28.5832 49.5833 27.7898 49.5833 25.4332V9.5665C49.5833 7.20984 49.0933 6.4165 46.13 6.4165H36.7033Z" fill="#0782DA"></path><path d="M46.13 53.0835H36.7033C32.0133 53.0835 29.75 50.9135 29.75 46.4335V42.2335C29.75 37.7535 32.0367 35.5835 36.7033 35.5835H46.13C50.82 35.5835 53.0833 37.7535 53.0833 42.2335V46.4335C53.0833 50.9135 50.7967 53.0835 46.13 53.0835ZM36.7033 39.0835C33.74 39.0835 33.25 39.8768 33.25 42.2335V46.4335C33.25 48.7902 33.74 49.5835 36.7033 49.5835H46.13C49.0933 49.5835 49.5833 48.7902 49.5833 46.4335V42.2335C49.5833 39.8768 49.0933 39.0835 46.13 39.0835H36.7033Z" fill="#0782DA"></path></svg>