<?xml version="1.0" encoding="UTF-8"?>
<svg version="1.1" xmlns="http://www.w3.org/2000/svg" width="367" height="336">
<path d="M0 0 C1.14662109 -0.01836914 1.14662109 -0.01836914 2.31640625 -0.03710938 C16.96220976 -0.07440769 29.19978724 6.89940172 40.125 16.1875 C46.60422916 23.73812596 51.51687486 32.00242361 56.1875 40.75 C57.48317853 43.13763376 58.78750025 45.52047968 60.09375 47.90234375 C60.424319 48.50626953 60.754888 49.11019531 61.09547424 49.73242188 C64.64241624 56.18260059 68.4050935 62.4976452 72.1875 68.8125 C77.9488573 78.44793341 83.52426219 88.16614029 88.97460938 97.98046875 C93.51979673 106.15043009 98.20553722 114.2307627 102.93701172 122.29394531 C106.98354835 129.20067086 110.9509277 136.14803535 114.875 143.125 C118.90926095 150.29521926 122.99592095 157.42671871 127.18774414 164.50585938 C132.92643939 174.20891227 138.52634806 183.99278998 144.15185547 193.76171875 C146.75490515 198.28114378 149.36035059 202.79918351 151.96679688 207.31665039 C153.23073992 209.50801326 154.49377301 211.69990125 155.75585938 213.89233398 C158.60515121 218.83893727 161.46568556 223.77751951 164.37109375 228.69140625 C164.87092773 229.540979 165.37076172 230.39055176 165.88574219 231.26586914 C166.79330692 232.80627547 167.70614352 234.34359693 168.62597656 235.87670898 C175.04782127 246.80379146 179.03783384 258.40782621 178.125 271.1875 C178.05667969 272.16460937 177.98835938 273.14171875 177.91796875 274.1484375 C176.40016655 287.92541134 169.43554097 301.14252365 158.81640625 310.14453125 C156.32048839 311.97753332 153.78660244 313.60523925 151.125 315.1875 C150.196875 315.74566406 149.26875 316.30382812 148.3125 316.87890625 C134.71517934 324.38274678 119.54462447 323.47663637 104.46582031 323.43041992 C102.41370076 323.43149516 100.36158151 323.43343741 98.3094635 323.43617249 C92.76423055 323.440994 87.21907892 323.43339177 81.67385578 323.42321944 C75.81721927 323.41435923 69.96058472 323.41619815 64.10394287 323.4165802 C54.24197048 323.41564486 44.38002893 323.40699083 34.51806641 323.39331055 C23.2317022 323.37770877 11.94537199 323.37230839 0.65899777 323.3730461 C-11.47641745 323.37373138 -23.61182013 323.36672336 -35.74723148 323.3575995 C-39.17986413 323.35550206 -42.61249465 323.35476296 -46.04512787 323.35436058 C-67.60525725 323.34933645 -89.16419209 323.29875137 -110.72053194 322.85781157 C-112.53007172 322.82118137 -114.33966866 322.78725432 -116.1493144 322.75629842 C-135.12591469 322.41922478 -149.8214925 318.9528441 -163.875 305.1875 C-175.30806595 291.48057149 -178.95761136 276.41959006 -177.70703125 258.82421875 C-174.67998854 237.63491975 -156.89758647 215.58369086 -146.31787109 197.52148438 C-141.78398979 189.7733494 -137.31858501 181.98758298 -132.875 174.1875 C-127.86176366 165.38747494 -122.8070719 156.61377709 -117.6875 147.875 C-112.63044429 139.24155805 -107.67528915 130.55618769 -102.77099609 121.83520508 C-98.27159471 113.85043837 -93.66351923 105.93219261 -89.03295898 98.02294922 C-85.29826801 91.63972132 -81.59879553 85.23809522 -77.9375 78.8125 C-71.53110641 67.57135714 -65.0763786 56.35861054 -58.59228516 45.16210938 C-57.0456396 42.48307477 -55.51087417 39.79770621 -53.98046875 37.109375 C-44.48118688 20.50875732 -33.93753625 7.16790353 -14.875 1.1875 C-9.90836335 0.09844699 -5.05983023 0.00422356 0 0 Z M-12.56274414 39.75439453 C-17.31015449 45.12673976 -20.77862621 50.83666882 -24.1875 57.125 C-25.32297238 59.17777325 -26.45970163 61.22985175 -27.59765625 63.28125 C-28.42934326 64.78751953 -28.42934326 64.78751953 -29.27783203 66.32421875 C-31.49425872 70.29765992 -33.79847724 74.21531587 -36.125 78.125 C-39.35226317 83.5610389 -42.48930843 89.0379401 -45.5625 94.5625 C-48.61647097 100.04916029 -51.85227784 105.36226605 -55.26953125 110.6328125 C-57.41518294 114.04706117 -59.31751063 117.56852778 -61.22265625 121.12109375 C-66.25372466 130.45771006 -71.51569488 139.65141217 -77.01806641 148.71801758 C-80.97971622 155.28829473 -84.76656949 161.95822957 -88.5625 168.625 C-93.64336883 177.54710306 -98.75275218 186.45013829 -103.9375 195.3125 C-113.97196325 212.47449883 -123.93935686 229.67348622 -133.6875 247 C-134.57695312 248.57479126 -134.57695312 248.57479126 -135.484375 250.18139648 C-136.03222656 251.15923096 -136.58007812 252.13706543 -137.14453125 253.14453125 C-137.62510986 254.00022705 -138.10568848 254.85592285 -138.60083008 255.73754883 C-141.65760765 261.61506615 -142.992772 266.57891816 -141.875 273.1875 C-139.21067747 279.08575884 -135.55212868 283.15969804 -129.875 286.1875 C-127.09387619 287.11454127 -125.4319909 287.31501939 -122.56139088 287.32172108 C-121.67556885 287.32617892 -120.78974681 287.33063676 -119.87708169 287.33522969 C-118.90297631 287.33504533 -117.92887092 287.33486097 -116.92524719 287.33467102 C-115.89110614 287.33834771 -114.8569651 287.3420244 -113.79148644 287.3458125 C-110.30930957 287.35686851 -106.82716252 287.36069644 -103.3449707 287.36450195 C-100.85507614 287.37076514 -98.36518251 287.37741181 -95.87528992 287.38441467 C-88.39108389 287.40365565 -80.90688579 287.41424494 -73.42266229 287.42314246 C-69.8976562 287.42752619 -66.37265161 287.43289279 -62.84764671 287.43813133 C-51.1286478 287.45514349 -39.40964982 287.46963735 -27.69064045 287.47688007 C-24.64963594 287.47878995 -21.60863144 287.48071028 -18.56762695 287.48266602 C-17.81180579 287.48314976 -17.05598463 287.4836335 -16.27725979 287.4841319 C-4.03520712 287.49243106 8.2067478 287.51776608 20.44875779 287.55024669 C33.01915131 287.58332648 45.58949516 287.60132968 58.15993243 287.60452431 C65.21704692 287.60668861 72.27401888 287.61542526 79.33109093 287.64098549 C85.97046457 287.66497737 92.6096279 287.66851238 99.24905205 287.65822411 C101.68550214 287.65772785 104.12196472 287.66407461 106.55837631 287.67778015 C109.88600222 287.69545113 113.21270265 287.68841558 116.54032898 287.67524719 C117.50328076 287.68621644 118.46623253 287.69718568 119.45836467 287.70848733 C126.47785045 287.64147645 132.0888768 286.18905633 137.18359375 281.15234375 C137.63863281 280.48332031 138.09367187 279.81429687 138.5625 279.125 C139.27212891 278.11759766 139.27212891 278.11759766 139.99609375 277.08984375 C142.63466645 272.64352921 143.0169975 268.18540965 142.125 263.1875 C137.52013623 251.41796903 130.36385706 240.57501464 123.96484375 229.7265625 C119.97644079 222.95743312 116.076007 216.1392573 112.1875 209.3125 C110.83768881 206.94505613 109.48732053 204.57793043 108.13671875 202.2109375 C107.80307312 201.62616638 107.46942749 201.04139526 107.12567139 200.43890381 C98.23957986 184.87222077 89.24121814 169.37078922 80.19628906 153.89599609 C74.87767665 144.78594257 69.63913804 135.63120354 64.42089844 126.46337891 C62.57604834 123.22342174 60.72578201 119.98657113 58.875 116.75 C57.03050453 113.52401506 55.18740357 110.29732479 53.3515625 107.06640625 C48.52615045 98.58630448 43.62447611 90.1516447 38.6965332 81.73071289 C35.56146879 76.37283813 32.44234719 71.00689905 29.35546875 65.62109375 C28.74074707 64.55358887 28.12602539 63.48608398 27.49267578 62.38623047 C26.32548603 60.35840798 25.16334651 58.32766656 24.00732422 56.29345703 C17.28375752 43.85791618 17.28375752 43.85791618 6.125 36.1875 C-0.78711177 34.56263791 -7.13209485 34.71260267 -12.56274414 39.75439453 Z " fill="#C88144" transform="translate(183.875,2.8125)"/>
<path d="M0 0 C6.63272147 5.52956613 6.63272147 5.52956613 7.26025391 9.79736328 C7.2916748 10.65185059 7.3230957 11.50633789 7.35546875 12.38671875 C7.39438232 13.38517822 7.4332959 14.3836377 7.47338867 15.41235352 C7.50408447 16.51506592 7.53478027 17.61777832 7.56640625 18.75390625 C7.60290283 19.91011475 7.63939941 21.06632324 7.67700195 22.25756836 C7.96361414 32.65414001 8.07266999 43.05408028 8.11663818 53.45428467 C8.1247586 55.26602741 8.13582384 57.07775956 8.14996338 58.88946533 C8.30746815 81.44279674 8.30746815 81.44279674 4.31640625 88.50390625 C0.12372565 92.25525205 -4.3507064 94.80306229 -10.05859375 95.12890625 C-14.63278233 94.84133447 -18.41743106 93.4142401 -22.05859375 90.62890625 C-28.27749006 83.39405163 -28.21123073 75.62000232 -28.19140625 66.5 C-28.19284134 65.02262108 -28.19284134 65.02262108 -28.19430542 63.51539612 C-28.19498496 61.42668596 -28.19314644 59.33797366 -28.18896484 57.24926758 C-28.18369941 54.12901744 -28.18887237 51.00891703 -28.1953125 47.88867188 C-28.19905934 41.80119854 -28.14791075 35.7156987 -28.05859375 29.62890625 C-28.04534058 28.63143372 -28.0320874 27.63396118 -28.01843262 26.60626221 C-27.96946032 23.72852009 -27.89064669 20.85328831 -27.80078125 17.9765625 C-27.7871756 17.11961288 -27.77356995 16.26266327 -27.759552 15.37974548 C-27.5000386 8.80852774 -25.52764595 5.03122731 -20.74609375 0.37890625 C-13.97062937 -4.03302404 -6.8167188 -4.54016755 0 0 Z " fill="#C78145" transform="translate(194.05859375,118.37109375)"/>
<path d="M0 0 C4.97824365 2.66653224 7.86468166 5.96454906 10.30859375 10.96875 C11.459112 16.51215609 11.5400362 21.56446106 8.6796875 26.59765625 C4.709778 31.59918957 0.4024535 34.53008554 -6.00390625 35.28125 C-12.43610864 35.00482477 -16.56317204 32.82771598 -21.00390625 28.28125 C-25.08815549 22.6276353 -24.75873536 17.01534341 -24.00390625 10.28125 C-21.73588155 5.309042 -18.70037289 2.9792202 -14.00390625 0.28125 C-9.41328016 -1.2489587 -4.62850487 -1.6601265 0 0 Z " fill="#C98143" transform="translate(191.00390625,228.71875)"/>
<path d="M0 0 C3.31460798 -0.2861123 3.31460798 -0.2861123 6 -1 C5.67 -0.01 5.34 0.98 5 2 C-1.12457668 2.76901821 -7.07611444 3.14242747 -13.24452209 3.12025452 C-14.13017568 3.12110894 -15.01582926 3.12196337 -15.92832083 3.12284368 C-18.87158722 3.12448 -21.81479557 3.1190076 -24.75805664 3.11352539 C-26.87758381 3.11324309 -28.99711107 3.11340208 -31.11663818 3.1139679 C-36.85353419 3.11425421 -42.59040918 3.10838427 -48.32730031 3.10139394 C-54.32907456 3.0951328 -60.33084933 3.09455442 -66.33262634 3.09336853 C-77.69023196 3.09026335 -89.04782793 3.08206093 -100.4054293 3.07201904 C-113.33888521 3.06083264 -126.27234159 3.05534109 -139.20580113 3.05032361 C-165.80387277 3.03987764 -192.40193584 3.02229395 -219 3 C-218.34 2.34 -217.68 1.68 -217 1 C-217.33 0.34 -217.66 -0.32 -218 -1 C-190.60997882 -1.17729821 -163.2199087 -1.34296657 -135.82973385 -1.49477577 C-123.11211636 -1.56553417 -110.3945425 -1.64010351 -97.67700195 -1.72363281 C-86.59289491 -1.79642401 -75.50877256 -1.86207665 -64.424573 -1.91914403 C-58.55515056 -1.94961261 -52.68579809 -1.98366464 -46.81645012 -2.02626419 C-41.29180817 -2.06624912 -35.76719579 -2.0966873 -30.24245834 -2.11981392 C-28.21516791 -2.12998118 -26.18789148 -2.14363205 -24.16065025 -2.16103554 C-21.39110561 -2.18428897 -18.62178315 -2.19496453 -15.85215759 -2.20254517 C-14.65125729 -2.21712011 -14.65125729 -2.21712011 -13.42609638 -2.2319895 C-8.59744924 -2.2287742 -4.65520216 -1.41927763 0 0 Z " fill="#C68E50" transform="translate(313,323)"/>
<path d="M0 0 C0.33 0.66 0.66 1.32 1 2 C-0.25768138 4.54509519 -1.57101697 7.0147904 -2.9375 9.5 C-7.56256713 18.30844814 -7.56256713 18.30844814 -7 28 C-4.35726443 33.99843937 -1.19568408 37.31768548 4.6446209 40.1462698 C8.88775018 41.68423352 13.08226514 41.5494901 17.55102539 41.50793457 C18.58943856 41.51417453 19.62785173 41.5204145 20.69773197 41.52684355 C24.16460687 41.54275181 27.63077659 41.53017722 31.09765625 41.51757812 C33.58829151 41.52300017 36.07892357 41.5301233 38.56954956 41.53881836 C44.62453189 41.55515301 50.67923921 41.55277793 56.73421073 41.5411678 C61.65673686 41.53212116 66.57920744 41.53091478 71.5017395 41.53526306 C72.55406158 41.53618246 72.55406158 41.53618246 73.62764269 41.53712043 C75.05298258 41.53839938 76.47832246 41.53969623 77.90366232 41.5410108 C91.25794064 41.55240727 104.61210899 41.53931758 117.96636927 41.51780933 C129.41611113 41.49993916 140.86569075 41.50304353 152.31542969 41.52148438 C165.62307498 41.54290761 178.93062398 41.55130872 192.23828411 41.53903532 C193.65827623 41.53776117 195.07826835 41.53650369 196.4982605 41.53526306 C197.19685891 41.53464596 197.89545732 41.53402886 198.61522537 41.53339306 C203.52981291 41.52994451 208.44433919 41.53575779 213.35891724 41.54518127 C219.97787505 41.55759428 226.59657433 41.54871175 233.21551895 41.52560425 C235.64389665 41.52031773 238.07230015 41.5218299 240.50066757 41.53065491 C243.81711716 41.54159561 247.13258731 41.52786318 250.44897461 41.50793457 C251.88828638 41.5213189 251.88828638 41.5213189 253.35667515 41.53497362 C260.31099367 41.4539932 265.97120415 40.02879585 271 35 C272.32 35 273.64 35 275 35 C273.9187203 38.89260694 272.40704019 41.01304884 268.96964264 43.17760849 C264.81269992 44.91327075 260.31714129 44.49693782 255.88574219 44.42236328 C254.77617157 44.4197348 253.66660095 44.41710632 252.52340698 44.41439819 C248.86421305 44.40143903 245.20586108 44.36059462 241.546875 44.3203125 C239.00434271 44.30777069 236.46179949 44.29729083 233.91925049 44.28878784 C227.9151085 44.26491324 221.91131884 44.22464439 215.90735364 44.17499244 C204.50664505 44.08088922 193.10586046 44.0154815 181.70487213 43.9659996 C177.95437792 43.94549024 174.20417596 43.91140281 170.45379639 43.87600708 C168.16809349 43.86235789 165.88238797 43.84914028 163.59667969 43.83642578 C162.54731232 43.82295105 161.49794495 43.80947632 160.41677856 43.79559326 C159.46348663 43.79256195 158.5101947 43.78953064 157.52801514 43.78640747 C156.28145708 43.77584918 156.28145708 43.77584918 155.00971603 43.76507759 C152.77024346 43.81627143 152.77024346 43.81627143 151 46 C149.13363361 46.24888897 149.13363361 46.24888897 146.82038879 46.24723816 C145.94426941 46.25143265 145.06815002 46.25562714 144.16548157 46.25994873 C143.20184189 46.25432922 142.23820221 46.24870972 141.24536133 46.24291992 C140.23218842 46.24481827 139.2190155 46.24671661 138.17514038 46.24867249 C134.81069304 46.25239041 131.44645957 46.241658 128.08203125 46.23046875 C125.74753342 46.22927695 123.41303511 46.22882379 121.07853699 46.2290802 C116.17659519 46.22751335 111.27472621 46.21921109 106.37280273 46.20581055 C100.0959135 46.18886737 93.81910474 46.18499482 87.54219532 46.18575573 C82.71658055 46.18548337 77.8909833 46.17999072 73.06537437 46.17275429 C70.75176819 46.16957578 68.43816002 46.16760212 66.12455177 46.16686058 C62.88353752 46.16468571 59.64260741 46.15591528 56.40161133 46.14526367 C55.4480928 46.14571686 54.49457428 46.14617004 53.51216125 46.14663696 C48.57304057 46.12297393 43.88900305 45.79328419 39 45 C36.9843254 44.97508717 34.96725217 45.00313377 32.953125 45.0859375 C31.86128906 45.12976563 30.76945312 45.17359375 29.64453125 45.21875 C28.52433594 45.2703125 27.40414062 45.321875 26.25 45.375 C24.54650391 45.44074219 24.54650391 45.44074219 22.80859375 45.5078125 C16.80760176 45.68388202 16.80760176 45.68388202 11 47 C5.48501543 45.32483703 0.49713042 42.22134388 -4.2734375 39.05078125 C-6.13064558 37.83252163 -6.13064558 37.83252163 -9 37 C-9.144375 36.05125 -9.28875 35.1025 -9.4375 34.125 C-9.82935399 31.1065506 -9.82935399 31.1065506 -11 29 C-12.01944688 19.73230112 -11.67810431 13.1914283 -5.7265625 5.66015625 C-4 4 -4 4 -2 4 C-1.34 2.68 -0.68 1.36 0 0 Z " fill="#C9864E" transform="translate(50,248)"/>
<path d="M0 0 C1.14662109 -0.01836914 1.14662109 -0.01836914 2.31640625 -0.03710938 C16.96220976 -0.07440769 29.19978724 6.89940172 40.125 16.1875 C46.60422916 23.73812596 51.51687486 32.00242361 56.1875 40.75 C57.48317853 43.13763376 58.78750025 45.52047968 60.09375 47.90234375 C60.424319 48.50626953 60.754888 49.11019531 61.09547424 49.73242188 C64.64241479 56.18259796 68.40502788 62.49768709 72.1875 68.8125 C77.96782538 78.47759545 83.56726705 88.22257916 89.01416016 98.0793457 C91.89616964 103.27637784 94.83970076 108.41866269 97.921875 113.5 C98.83803589 115.01436646 98.83803589 115.01436646 99.77270508 116.55932617 C100.93867932 118.47504842 102.11511831 120.38445278 103.3034668 122.28637695 C103.82078369 123.13675537 104.33810059 123.98713379 104.87109375 124.86328125 C105.56223267 125.9757019 105.56223267 125.9757019 106.26733398 127.1105957 C107.2910802 129.589676 107.0415021 130.71381718 106.125 133.1875 C104.95286955 131.39940303 103.78744474 129.60690875 102.625 127.8125 C101.9753125 126.81476563 101.325625 125.81703125 100.65625 124.7890625 C99.125 122.1875 99.125 122.1875 99.125 120.1875 C98.465 120.1875 97.805 120.1875 97.125 120.1875 C97.125 119.1975 97.125 118.2075 97.125 117.1875 C96.135 116.8575 95.145 116.5275 94.125 116.1875 C92.6772078 113.29191559 92.125 111.44561062 92.125 108.1875 C91.465 108.1875 90.805 108.1875 90.125 108.1875 C83.125 94.1875 83.125 94.1875 81.72265625 91.359375 C80.04476035 88.0281978 78.31793469 84.72846611 76.5625 81.4375 C75.96308594 80.30828125 75.36367188 79.1790625 74.74609375 78.015625 C73.27474059 75.16268951 73.27474059 75.16268951 71.125 73.1875 C71.125 72.1975 71.125 71.2075 71.125 70.1875 C70.50625 70.105 69.8875 70.0225 69.25 69.9375 C67.125 69.1875 67.125 69.1875 65.875 67.3125 C65.125 65.1875 65.125 65.1875 65.125 62.1875 C63.145 61.6925 63.145 61.6925 61.125 61.1875 C60.465 58.8775 59.805 56.5675 59.125 54.1875 C58.135 54.1875 57.145 54.1875 56.125 54.1875 C55.795 50.8875 55.465 47.5875 55.125 44.1875 C53.805 44.5175 52.485 44.8475 51.125 45.1875 C50.795 43.5375 50.465 41.8875 50.125 40.1875 C50.785 40.1875 51.445 40.1875 52.125 40.1875 C51.34369929 37.69197516 51.34369929 37.69197516 50.125 35.1875 C48.64 34.6925 48.64 34.6925 47.125 34.1875 C47.455 32.5375 47.785 30.8875 48.125 29.1875 C47.465 29.1875 46.805 29.1875 46.125 29.1875 C45.8775 28.589375 45.63 27.99125 45.375 27.375 C43.96055909 24.89972841 42.39639812 23.85319196 40.125 22.1875 C40.125 21.5275 40.125 20.8675 40.125 20.1875 C39.135 20.1875 38.145 20.1875 37.125 20.1875 C37.125 19.5275 37.125 18.8675 37.125 18.1875 C35.805 17.5275 34.485 16.8675 33.125 16.1875 C33.125 15.1975 33.125 14.2075 33.125 13.1875 C30.485 12.5275 27.845 11.8675 25.125 11.1875 C25.125 10.5275 25.125 9.8675 25.125 9.1875 C24.485625 9.105 23.84625 9.0225 23.1875 8.9375 C19.58619531 8.05554783 16.52483967 6.56967322 13.2109375 4.9296875 C10.97851902 3.89413413 10.97851902 3.89413413 8.125 5.1875 C7.3 5.043125 6.475 4.89875 5.625 4.75 C-2.64864725 3.42030669 -9.54176707 4.08475286 -17.5 6.5625 C-18.21140137 6.78373535 -18.92280273 7.0049707 -19.65576172 7.23291016 C-21.41919743 7.81729209 -23.15099848 8.4953826 -24.875 9.1875 C-25.205 9.8475 -25.535 10.5075 -25.875 11.1875 C-26.535 11.1875 -27.195 11.1875 -27.875 11.1875 C-28.205 11.8475 -28.535 12.5075 -28.875 13.1875 C-29.514375 13.31125 -30.15375 13.435 -30.8125 13.5625 C-33.03166856 13.97306008 -33.03166856 13.97306008 -33.875 16 C-34.205 16.721875 -34.535 17.44375 -34.875 18.1875 C-36.18473998 19.5440164 -37.52302142 20.87307638 -38.875 22.1875 C-40.43783213 24.04286224 -41.97987274 25.91267986 -43.5078125 27.796875 C-43.95898438 28.25578125 -44.41015625 28.7146875 -44.875 29.1875 C-45.535 29.1875 -46.195 29.1875 -46.875 29.1875 C-47.07029297 30.26257812 -47.07029297 30.26257812 -47.26953125 31.359375 C-47.86640149 34.14733664 -48.60938226 36.75107532 -49.5625 39.4375 C-49.85511719 40.30890625 -50.14773437 41.1803125 -50.44921875 42.078125 C-51.875 44.1875 -51.875 44.1875 -55.01953125 44.984375 C-56.43298828 45.08492187 -56.43298828 45.08492187 -57.875 45.1875 C-53.88677027 36.66719103 -49.32113778 28.85795511 -43.875 21.1875 C-43.1325 20.135625 -42.39 19.08375 -41.625 18 C-29.83694082 5.94403039 -16.7004594 0.01394028 0 0 Z " fill="#B7885B" transform="translate(183.875,2.8125)"/>
<path d="M0 0 C0.94875 0.825 1.8975 1.65 2.875 2.5 C2.875 3.16 2.875 3.82 2.875 4.5 C3.4525 4.685625 4.03 4.87125 4.625 5.0625 C9.82558055 8.38509313 11.3013355 14.62720729 13.01171875 20.2265625 C14.20902059 23.37963793 16.00421652 25.96159851 17.984375 28.67578125 C19.13122719 31.02481621 18.59417049 32.05905447 17.875 34.5 C17.23433594 33.40042969 16.59367187 32.30085938 15.93359375 31.16796875 C13.26598467 26.60091027 10.57753427 22.04647217 7.875 17.5 C7.51857422 16.89929688 7.16214844 16.29859375 6.79492188 15.6796875 C5.89559926 14.17536604 4.9796977 12.68099007 4.0625 11.1875 C3.56105469 10.36636719 3.05960937 9.54523437 2.54296875 8.69921875 C-1.15282644 3.82630847 -5.15145171 1.59515052 -11.125 0.5 C-17.14781194 0.40540086 -21.53038011 1.40479532 -26.125 5.5 C-32.03487164 12.48305728 -36.14907754 20.78941591 -40.515625 28.77734375 C-42.98525099 33.28007366 -45.56523832 37.70982175 -48.1875 42.125 C-51.47701144 47.66553401 -54.68118031 53.2435779 -57.8125 58.875 C-60.86636013 64.36171999 -64.10228266 69.67477349 -67.51953125 74.9453125 C-69.65427373 78.34220199 -71.54784381 81.84551185 -73.4453125 85.37890625 C-75.56088103 89.30992778 -77.70854486 93.22183202 -79.875 97.125 C-80.26413574 97.8368042 -80.65327148 98.5486084 -81.05419922 99.28198242 C-83.896246 104.385623 -83.896246 104.385623 -86.125 105.5 C-85.71582599 99.46468333 -84.9867352 97.25182662 -81.125 92.5 C-80.00067066 90.30137002 -78.93875898 88.06983709 -77.9375 85.8125 C-77.17373047 84.10513672 -77.17373047 84.10513672 -76.39453125 82.36328125 C-75.76611328 80.94595703 -75.76611328 80.94595703 -75.125 79.5 C-74.63 78.51 -74.63 78.51 -74.125 77.5 C-73.465 77.5 -72.805 77.5 -72.125 77.5 C-70.88578698 74.52588876 -69.82441596 71.64737182 -69.125 68.5 C-68.465 68.5 -67.805 68.5 -67.125 68.5 C-66.02404289 65.82624701 -65.04537155 63.22130044 -64.25 60.4375 C-63.01650188 57.21669936 -61.60883545 55.82859574 -59.125 53.5 C-58.03333725 51.56669397 -58.03333725 51.56669397 -57.125 49.5 C-56.67125 48.778125 -56.2175 48.05625 -55.75 47.3125 C-53.55386482 43.51149681 -51.85474402 39.53021576 -50.125 35.5 C-49.465 35.5 -48.805 35.5 -48.125 35.5 C-48.455 34.51 -48.785 33.52 -49.125 32.5 C-45.375 29.5 -45.375 29.5 -43.125 29.5 C-43.455 27.85 -43.785 26.2 -44.125 24.5 C-43.135 24.17 -42.145 23.84 -41.125 23.5 C-39.95546584 21.07616923 -39.95546584 21.07616923 -39.125 18.5 C-38.795 17.84 -38.465 17.18 -38.125 16.5 C-37.465 16.5 -36.805 16.5 -36.125 16.5 C-35.795 14.85 -35.465 13.2 -35.125 11.5 C-34.465 11.5 -33.805 11.5 -33.125 11.5 C-33.03863281 10.87351562 -32.95226562 10.24703125 -32.86328125 9.6015625 C-32.43957375 7.13706198 -31.96932258 4.85544352 -31.125 2.5 C-28.75 1.125 -28.75 1.125 -26.125 0.5 C-25.526875 0.005 -24.92875 -0.49 -24.3125 -1 C-16.69990809 -6.22006303 -7.37850375 -5.02334498 0 0 Z " fill="#B88B5E" transform="translate(197.125,38.5)"/>
<path d="M0 0 C0.66 0 1.32 0 2 0 C2 1.65 2 3.3 2 5 C1.01 5.33 0.02 5.66 -1 6 C-1.0825 6.639375 -1.165 7.27875 -1.25 7.9375 C-2.67268442 13.7467947 -4.75969822 18.77091595 -9 23 C-9.96430901 24.85686754 -9.96430901 24.85686754 -10.75 26.9375 C-13.29532374 32.93859021 -16.66453559 38.41251669 -20 44 C-21.34397919 46.32747417 -22.67227508 48.66320414 -24 51 C-24.66 51 -25.32 51 -26 51 C-26 51.99 -26 52.98 -26 54 C-26.66 54 -27.32 54 -28 54 C-27.34 55.65 -26.68 57.3 -26 59 C-26.804375 59.28875 -27.60875 59.5775 -28.4375 59.875 C-31.1326468 60.73262568 -31.1326468 60.73262568 -32 63 C-32.99 63 -33.98 63 -35 63 C-35.28875 63.886875 -35.5775 64.77375 -35.875 65.6875 C-36.83148748 68.50382424 -37.86798946 71.25083156 -39 74 C-39.66 74 -40.32 74 -41 74 C-41.33 76.64 -41.66 79.28 -42 82 C-42.66 82 -43.32 82 -44 82 C-44.103125 83.093125 -44.20625 84.18625 -44.3125 85.3125 C-45 89 -45 89 -46.4375 90.9375 C-48 92 -48 92 -50 92 C-50.12632813 92.556875 -50.25265625 93.11375 -50.3828125 93.6875 C-51.05545309 96.20777361 -51.92032788 98.57261662 -52.875 101 C-53.20242187 101.845625 -53.52984375 102.69125 -53.8671875 103.5625 C-55.01938417 106.04170939 -56.14645149 107.98810815 -58 110 C-58.99 110 -59.98 110 -61 110 C-62.79065093 116.122186 -63.28082201 121.57686848 -63.1875 127.9375 C-63.1865332 129.23010742 -63.1865332 129.23010742 -63.18554688 130.54882812 C-63.55734579 134.59582925 -63.55734579 134.59582925 -62 138 C-62.020625 139.0725 -62.04125 140.145 -62.0625 141.25 C-62.00329857 144.80208608 -61.52676282 146.85105168 -60 150 C-60.66 150 -61.32 150 -62 150 C-62.495 150.99 -62.495 150.99 -63 152 C-67.73702666 140.46636988 -68.95245729 127.00746519 -65 115 C-56.93924516 96.32843919 -45.70097582 78.84712148 -35.44287109 61.33398438 C-31.25361463 54.17479286 -27.12016744 46.98510545 -23.01364136 39.77828979 C-20.67914941 35.68275524 -18.33876692 31.5905827 -15.99902344 27.49804688 C-14.6515055 25.14100448 -13.306093 22.7827761 -11.96191406 20.42382812 C-10.02536012 17.02731 -8.0757617 13.63837941 -6.125 10.25 C-5.53589844 9.21359375 -4.94679687 8.1771875 -4.33984375 7.109375 C-3.52580078 5.70171875 -3.52580078 5.70171875 -2.6953125 4.265625 C-1.9839917 3.02474121 -1.9839917 3.02474121 -1.25830078 1.75878906 C-0.63544189 0.88818848 -0.63544189 0.88818848 0 0 Z " fill="#BF8A57" transform="translate(73,139)"/>
<path d="M0 0 C1.32 0 2.64 0 4 0 C2.91229853 3.9157253 1.39006963 5.99991227 -2.06451344 8.17467308 C-6.05218136 9.87508772 -10.3103587 9.52504063 -14.57626343 9.4699707 C-15.64155262 9.47212711 -16.7068418 9.47428352 -17.80441248 9.47650528 C-21.37430457 9.47874929 -24.94339733 9.45223572 -28.51318359 9.42578125 C-31.07248198 9.42133885 -33.63178383 9.41860899 -36.19108582 9.41746521 C-42.4215198 9.40983875 -48.65162629 9.38334556 -54.88195513 9.34762424 C-59.94704529 9.31898105 -65.012111 9.29822235 -70.07725906 9.28308105 C-70.79850562 9.28091863 -71.51975219 9.2787562 -72.2628547 9.27652824 C-73.72813659 9.27216971 -75.19341854 9.26782956 -76.65870054 9.2635076 C-90.39694206 9.22206329 -104.13498106 9.15600662 -117.87307759 9.08150077 C-129.65364613 9.01817956 -141.43413801 8.97577452 -153.21484375 8.94873047 C-166.90121903 8.91730113 -180.58745211 8.87296525 -194.27371275 8.80806828 C-195.73417823 8.80117764 -197.19464378 8.79430317 -198.65510941 8.78744507 C-199.37364656 8.78406386 -200.09218372 8.78068264 -200.83249473 8.77719897 C-205.88879587 8.75428791 -210.94507403 8.74055148 -216.00141525 8.7303772 C-222.81250737 8.71639131 -229.62317964 8.68126233 -236.43412209 8.63200569 C-238.9334241 8.61709732 -241.43277687 8.60893765 -243.93212318 8.60803032 C-247.34507541 8.60568733 -250.75699519 8.5788744 -254.16976929 8.54589844 C-255.15791134 8.55093038 -256.1460534 8.55596231 -257.16413915 8.56114674 C-263.50127917 8.46544678 -267.53273066 7.23431994 -273 4 C-272.67 3.34 -272.34 2.68 -272 2 C-270.8976149 2.64952385 -269.7952298 3.2990477 -268.65943909 3.96825409 C-263.5719532 6.49421214 -259.0483164 6.56000351 -253.44897461 6.50793457 C-252.41056144 6.51417453 -251.37214827 6.5204145 -250.30226803 6.52684355 C-246.83539313 6.54275181 -243.36922341 6.53017722 -239.90234375 6.51757812 C-237.41170849 6.52300017 -234.92107643 6.5301233 -232.43045044 6.53881836 C-226.37546811 6.55515301 -220.32076079 6.55277793 -214.26578927 6.5411678 C-209.34326314 6.53212116 -204.42079256 6.53091478 -199.4982605 6.53526306 C-198.44593842 6.53618246 -198.44593842 6.53618246 -197.37235731 6.53712043 C-195.94701742 6.53839938 -194.52167754 6.53969623 -193.09633768 6.5410108 C-179.74205936 6.55240727 -166.38789101 6.53931758 -153.03363073 6.51780933 C-141.58388887 6.49993916 -130.13430925 6.50304353 -118.68457031 6.52148438 C-105.37692502 6.54290761 -92.06937602 6.55130872 -78.76171589 6.53903532 C-77.34172377 6.53776117 -75.92173165 6.53650369 -74.5017395 6.53526306 C-73.80314109 6.53464596 -73.10454268 6.53402886 -72.38477463 6.53339306 C-67.47018709 6.52994451 -62.55566081 6.53575779 -57.64108276 6.54518127 C-51.02212495 6.55759428 -44.40342567 6.54871175 -37.78448105 6.52560425 C-35.35610335 6.52031773 -32.92769985 6.5218299 -30.49933243 6.53065491 C-27.18288284 6.54159561 -23.86741269 6.52786318 -20.55102539 6.50793457 C-19.59148421 6.51685746 -18.63194304 6.52578034 -17.64332485 6.53497362 C-10.68900633 6.4539932 -5.02879585 5.02879585 0 0 Z " fill="#B18158" transform="translate(321,283)"/>
<path d="M0 0 C3.31460798 -0.2861123 3.31460798 -0.2861123 6 -1 C5.67 -0.01 5.34 0.98 5 2 C-2.24584242 2.96039004 -9.34033287 3.14580935 -16.64453125 3.1328125 C-17.84953781 3.13376923 -19.05454437 3.13472595 -20.29606628 3.13571167 C-22.84182792 3.1363899 -25.38759133 3.13456058 -27.93334961 3.13037109 C-31.76224835 3.12506958 -35.591027 3.13030147 -39.41992188 3.13671875 C-53.31150452 3.14010191 -67.13554668 2.88743822 -81 2 C-81.33 1.34 -81.66 0.68 -82 0 C-72.80198303 -0.80954254 -63.64476079 -1.21926603 -54.4140625 -1.38671875 C-53.05935618 -1.41247441 -51.70465038 -1.43825724 -50.34994507 -1.46406555 C-47.53819073 -1.51647799 -44.72639925 -1.5654764 -41.91455078 -1.61254883 C-38.3270393 -1.67332636 -34.73993754 -1.74759231 -31.15275002 -1.82492352 C-28.36635148 -1.88267966 -25.57984549 -1.93088743 -22.79322433 -1.976511 C-20.83285681 -2.0109494 -18.87267044 -2.05525083 -16.9125061 -2.09977722 C-10.7991369 -2.18618518 -5.77982571 -1.97689229 0 0 Z " fill="#C88853" transform="translate(313,323)"/>
<path d="M0 0 C4.97824365 2.66653224 7.86468166 5.96454906 10.30859375 10.96875 C11.459112 16.51215609 11.5400362 21.56446106 8.6796875 26.59765625 C4.709778 31.59918957 0.4024535 34.53008554 -6.00390625 35.28125 C-12.43610864 35.00482477 -16.56317204 32.82771598 -21.00390625 28.28125 C-25.08815549 22.6276353 -24.75873536 17.01534341 -24.00390625 10.28125 C-21.73588155 5.309042 -18.70037289 2.9792202 -14.00390625 0.28125 C-9.41328016 -1.2489587 -4.62850487 -1.6601265 0 0 Z M-18.00390625 6.28125 C-21.922058 11.60920402 -21.9569145 16.88743098 -21.00390625 23.28125 C-19.62230117 25.9114167 -18.22895112 27.21513691 -16.00390625 29.28125 C-15.34390625 30.27125 -14.68390625 31.26125 -14.00390625 32.28125 C-7.69393256 31.95564638 -2.51961849 31.64448917 2.99609375 28.28125 C3.75921875 27.95125 4.52234375 27.62125 5.30859375 27.28125 C7.34612473 26.32270794 7.34612473 26.32270794 7.99609375 23.28125 C8.16675659 21.16055439 8.26235355 19.03329902 8.30859375 16.90625 C8.34597656 15.78476563 8.38335937 14.66328125 8.421875 13.5078125 C7.90435114 9.58602615 6.78124018 8.04187929 3.99609375 5.28125 C-3.5924139 0.6968526 -10.94726059 1.26017521 -18.00390625 6.28125 Z " fill="#B58B60" transform="translate(191.00390625,228.71875)"/>
<path d="M0 0 C1.41687119 4.25061356 0.19320039 6.71851625 -1 11 C-1.66 11 -2.32 11 -3 11 C-3 11.99 -3 12.98 -3 14 C-4.32 14 -5.64 14 -7 14 C-7.08378906 14.99644531 -7.16757813 15.99289063 -7.25390625 17.01953125 C-7.88669375 21.43792269 -9.7486806 24.84834951 -11.9375 28.6875 C-12.65519083 29.98293837 -13.37264576 31.27850746 -14.08984375 32.57421875 C-14.72019531 33.70472656 -15.35054687 34.83523437 -16 36 C-16.67762111 37.32779963 -17.35105936 38.65794998 -18 40 C-18.66 40 -19.32 40 -20 40 C-20 40.66 -20 41.32 -20 42 C-20.99 42 -21.98 42 -23 42 C-23.13277344 42.66386719 -23.26554687 43.32773438 -23.40234375 44.01171875 C-23.93489583 46.67447917 -24.46744792 49.33723958 -25 52 C-25.14695312 52.8971875 -25.29390625 53.794375 -25.4453125 54.71875 C-26 57 -26 57 -27.9375 58.8125 C-30 60 -30 60 -32 60 C-32.268125 60.845625 -32.53625 61.69125 -32.8125 62.5625 C-34.98912514 68.86325698 -36.80375716 73.60317913 -42 78 C-42.66 78 -43.32 78 -44 78 C-42.73577908 73.86510217 -41.19522439 70.3006019 -39.015625 66.5703125 C-38.4172583 65.53994873 -37.8188916 64.50958496 -37.20239258 63.44799805 C-36.55810303 62.35140869 -35.91381348 61.25481934 -35.25 60.125 C-34.57460749 58.96619672 -33.89972953 57.8070934 -33.2253418 56.64770508 C-31.49226559 53.67116958 -29.75286125 50.69838932 -28.01141357 47.72674561 C-25.85260598 44.04110046 -23.70132887 40.35105337 -21.54858398 36.66186523 C-20.39660419 34.68822302 -19.24377999 32.71507342 -18.09008789 30.74243164 C-13.54997 22.97170792 -9.07626658 15.16426893 -4.6418457 7.33276367 C-4.17609131 6.51267822 -3.71033691 5.69259277 -3.23046875 4.84765625 C-2.82207764 4.12586182 -2.41368652 3.40406738 -1.99291992 2.66040039 C-1 1 -1 1 0 0 Z " fill="#C08956" transform="translate(120,58)"/>
<path d="M0 0 C30.03 0 60.06 0 91 0 C91 0.33 91 0.66 91 1 C92.65 1.33 94.3 1.66 96 2 C96 2.33 96 2.66 96 3 C63.66 3 31.32 3 -2 3 C-1.34 2.67 -0.68 2.34 0 2 C0 1.34 0 0.68 0 0 Z " fill="#B98958" transform="translate(135,323)"/>
<path d="M0 0 C0.495 0.99 0.495 0.99 1 2 C-0.00952148 4.16943359 -0.00952148 4.16943359 -1.62109375 6.8984375 C-2.21913818 7.92171143 -2.81718262 8.94498535 -3.43334961 9.99926758 C-4.09471924 11.11325928 -4.75608887 12.22725098 -5.4375 13.375 C-6.46905719 15.13206638 -7.49782631 16.89074759 -8.52662659 18.64942932 C-9.24525583 19.87723874 -9.96486976 21.1044723 -10.68540955 22.3311615 C-13.25035079 26.7009839 -15.77753628 31.09093074 -18.28125 35.49609375 C-18.63059097 36.11043274 -18.97993195 36.72477173 -19.33985901 37.35772705 C-21.01771157 40.31002127 -22.69310796 43.26368702 -24.36694336 46.21826172 C-28.75007908 53.91850353 -33.31242514 61.48245315 -38 69 C-40 66 -40 66 -40 64 C-39.34 64 -38.68 64 -38 64 C-37.9071875 62.39125 -37.9071875 62.39125 -37.8125 60.75 C-37 57 -37 57 -34.6875 55.1875 C-31.20454683 52.35253812 -30.47374091 49.54697177 -28.9765625 45.40234375 C-27.78775877 42.47788656 -26.03750887 40.3888035 -24 38 C-23.63215869 36.6757713 -23.28797019 35.34386088 -23 34 C-22.01 33.505 -22.01 33.505 -21 33 C-21 31.35 -21 29.7 -21 28 C-20.01 27.67 -19.02 27.34 -18 27 C-17.32558869 25.3364521 -16.6599679 23.66933058 -16 22 C-14.68671343 20.64691687 -13.35500919 19.31129922 -12 18 C-11.67 17.01 -11.34 16.02 -11 15 C-10.01 15 -9.02 15 -8 15 C-8 13.68 -8 12.36 -8 11 C-7.34 11 -6.68 11 -6 11 C-5.71125 10.278125 -5.4225 9.55625 -5.125 8.8125 C-4.75375 7.884375 -4.3825 6.95625 -4 6 C-3.67 5.0925 -3.34 4.185 -3 3.25 C-2 1 -2 1 0 0 Z " fill="#B8885A" transform="translate(110,144)"/>
<path d="M0 0 C0.33 0 0.66 0 1 0 C1.9775016 3.61997846 2.27259907 5.4149482 0.6640625 8.8671875 C-0.34527344 10.35605469 -0.34527344 10.35605469 -1.375 11.875 C-2.13067892 13.02532974 -2.88315477 14.17776853 -3.6328125 15.33203125 C-4.22304199 16.23236084 -4.22304199 16.23236084 -4.82519531 17.15087891 C-6.77004968 20.21204412 -8.50202451 23.38616973 -10.25 26.5625 C-15.5898719 36.18597914 -21.29669715 45.58889675 -27 55 C-28.16251346 51.33728637 -27.65419716 49.42224962 -26.01953125 45.9140625 C-24.58548195 43.22178604 -22.92967698 40.69245533 -21.2734375 38.1328125 C-19.15581781 34.58612431 -17.57889215 30.81051066 -16 27 C-15.34 27 -14.68 27 -14 27 C-12.76078698 24.02588876 -11.69941596 21.14737182 -11 18 C-10.34 18 -9.68 18 -9 18 C-7.89904289 15.32624701 -6.92037155 12.72130044 -6.125 9.9375 C-4.89803369 6.73375463 -3.47172431 5.31225822 -1 3 C-0.67 2.01 -0.34 1.02 0 0 Z " fill="#BF9059" transform="translate(139,89)"/>
<path d="M0 0 C2.5404768 3.23155686 4.61993177 6.62588795 6.6953125 10.171875 C7.0444722 10.76728592 7.3936319 11.36269684 7.75337219 11.97615051 C8.87990579 13.89922649 10.00264963 15.82448007 11.125 17.75 C11.89587419 19.06895272 12.66678899 20.38788171 13.43774414 21.70678711 C18.71805528 30.75110169 23.98380823 39.80573329 29 49 C29.41121094 49.74636719 29.82242187 50.49273437 30.24609375 51.26171875 C31.22469248 53.51807332 30.81041747 54.73083109 30 57 C27 52.25 27 52.25 27 50 C26.34 50 25.68 50 25 50 C24.443125 48.96875 23.88625 47.9375 23.3125 46.875 C21.22854871 43.2075445 18.77963073 40.16569055 16 37 C16.66 37 17.32 37 18 37 C17.67 35.02 17.34 33.04 17 31 C16.01 31.33 15.02 31.66 14 32 C13.34 29.03 12.68 26.06 12 23 C11.01 23 10.02 23 9 23 C8.731875 22.38125 8.46375 21.7625 8.1875 21.125 C7.04443152 18.7004767 7.04443152 18.7004767 4 17 C3.74169824 14.96587366 3.4888127 12.92991864 3.31640625 10.88671875 C2.90648505 8.44237381 1.75118032 7.67504205 0 6 C-0.1875 2.8125 -0.1875 2.8125 0 0 Z " fill="#B58659" transform="translate(328,198)"/>
<path d="M0 0 C2.20160479 0.73386826 4.40274276 1.46874913 6.6015625 2.2109375 C8.55325209 2.8530243 10.52445604 3.43555887 12.5 4 C13.325 4.33 14.15 4.66 15 5 C15.33 5.99 15.66 6.98 16 8 C17.32 8 18.64 8 20 8 C20 8.66 20 9.32 20 10 C21.98 9.67 23.96 9.34 26 9 C26.33 9.99 26.66 10.98 27 12 C41.85 12 56.7 12 72 12 C71.67 12.66 71.34 13.32 71 14 C64.89853075 14.0497018 58.79718123 14.08586193 52.69555664 14.10986328 C50.62294459 14.11987668 48.55034651 14.13349135 46.4777832 14.15087891 C43.48645566 14.17533313 40.49531606 14.18653 37.50390625 14.1953125 C36.12991417 14.21079636 36.12991417 14.21079636 34.72816467 14.22659302 C21.71039461 14.22882707 9.49627386 10.23248848 0 1 C0 0.67 0 0.34 0 0 Z " fill="#B08056" transform="translate(25,311)"/>
<path d="M0 0 C0.66 0 1.32 0 2 0 C5 4.38461538 5 4.38461538 5 7 C5.66 7 6.32 7 7 7 C7 7.66 7 8.32 7 9 C7.804375 9.2475 8.60875 9.495 9.4375 9.75 C10.283125 10.1625 11.12875 10.575 12 11 C12.37610683 12.32190489 12.70498213 13.65766869 13 15 C13.680625 16.11375 14.36125 17.2275 15.0625 18.375 C18.48188768 24.94121547 18.13005301 34.00372831 16 41 C13.525 41.495 13.525 41.495 11 42 C11.33 41.030625 11.66 40.06125 12 39.0625 C14.93648813 28.01779836 11.19967618 21.44119012 6.02197266 11.89892578 C4.62086261 9.29552542 3.30849034 6.65091847 2 4 C1.608125 3.21625 1.21625 2.4325 0.8125 1.625 C0.544375 1.08875 0.27625 0.5525 0 0 Z " fill="#BE8A5D" transform="translate(312,240)"/>
<path d="M0 0 C-0.33 0.66 -0.66 1.32 -1 2 C-8.32258557 3.24151829 -15.69962539 3.18620821 -23.11181641 3.18530273 C-25.12814018 3.18750343 -27.14392769 3.20576383 -29.16015625 3.22460938 C-30.45050781 3.22654297 -31.74085938 3.22847656 -33.0703125 3.23046875 C-34.81465576 3.23663208 -34.81465576 3.23663208 -36.59423828 3.24291992 C-40.36779824 2.97376636 -43.40946527 2.15387587 -47 1 C-47 0.67 -47 0.34 -47 0 C-45.77893555 0.00523682 -44.55787109 0.01047363 -43.29980469 0.01586914 C-38.76742283 0.03397584 -34.23504416 0.04545279 -29.70263672 0.05493164 C-27.74136823 0.05995887 -25.78010348 0.06678157 -23.81884766 0.07543945 C-20.99901403 0.08757545 -18.17922998 0.09324444 -15.359375 0.09765625 C-14.48319519 0.10281754 -13.60701538 0.10797882 -12.70428467 0.11329651 C-11.88373596 0.11337204 -11.06318726 0.11344757 -10.21777344 0.11352539 C-9.49829529 0.115746 -8.77881714 0.11796661 -8.03753662 0.12025452 C-5.96050104 0.06581901 -5.96050104 0.06581901 -3.86138916 -0.56959534 C-2 -1 -2 -1 0 0 Z " fill="#B17D4E" transform="translate(319,323)"/>
<path d="M0 0 C0.33 0.66 0.66 1.32 1 2 C-0.2576868 4.54510614 -1.57079253 7.01489715 -2.9375 9.5 C-6.12791663 15.62628237 -8.90397049 20.97835086 -7 28 C-5.59482811 31.19880428 -3.95602265 34.1078808 -2 37 C-3.93359375 36.6171875 -3.93359375 36.6171875 -6 36 C-7.0625 34.125 -7.0625 34.125 -8 32 C-8.50144531 31.60683594 -9.00289062 31.21367187 -9.51953125 30.80859375 C-12.4367762 27.24478264 -11.71912721 22.31330039 -11.5625 17.8984375 C-10.72914033 12.12279203 -8.18632996 8.02531727 -4 4 C-3.34 4 -2.68 4 -2 4 C-1.34 2.68 -0.68 1.36 0 0 Z " fill="#C88C58" transform="translate(50,248)"/>
<path d="M0 0 C5.75 1.625 5.75 1.625 8 5 C8.15597656 5.64710937 8.31195313 6.29421875 8.47265625 6.9609375 C9.07514115 9.29054578 10.00860285 10.70001689 11.4375 12.625 C11.86933594 13.21539062 12.30117187 13.80578125 12.74609375 14.4140625 C14.05410314 16.13152168 14.05410314 16.13152168 16 18 C18.57316641 20.57316641 18 24.63042352 18 28 C18.29044914 29.34332728 18.60955794 30.68225804 19 32 C16.49181855 29.70787393 14.89651116 27.34342592 13.22265625 24.39453125 C12.70896484 23.49283203 12.19527344 22.59113281 11.66601562 21.66210938 C11.13685547 20.72173828 10.60769531 19.78136719 10.0625 18.8125 C9.53720703 17.89146484 9.01191406 16.97042969 8.47070312 16.02148438 C5.48307356 10.75293612 2.65474429 5.44382505 0 0 Z " fill="#BC8652" transform="translate(238,112)"/>
<path d="M0 0 C3.02907074 1.51453537 3.57351392 4.17476839 4.90234375 7.1875 C5.93798073 9.33914099 5.93798073 9.33914099 9 10 C9 10.99 9 11.98 9 13 C9.928125 13.144375 10.85625 13.28875 11.8125 13.4375 C15 14 15 14 18 15 C21.62280804 14.26258366 21.62280804 14.26258366 25 13 C25.33 12.34 25.66 11.68 26 11 C26 11.66 26 12.32 26 13 C26.66 13.33 27.32 13.66 28 14 C23.8308897 17.30653575 20.59149463 18.3788032 15.1875 18.26953125 C10.38781145 17.67814105 6.58744526 15.80653577 3.38671875 12.1640625 C0.61656897 8.09077183 -0.62987919 5.03903349 0 0 Z " fill="#BF8C5B" transform="translate(167,195)"/>
<path d="M0 0 C2.04992059 2.58937338 3.89230354 5.29320546 5.6875 8.0625 C6.12449219 8.73410156 6.56148438 9.40570313 7.01171875 10.09765625 C8 12 8 12 8 15 C8.66 15 9.32 15 10 15 C10.53625 16.11375 11.0725 17.2275 11.625 18.375 C15.96624445 27.27383419 15.96624445 27.27383419 22 35 C22.69040574 36.65697379 23.3530635 38.3255761 24 40 C24.495 40.969375 24.99 41.93875 25.5 42.9375 C26.9565756 45.91134185 28.02212664 48.84071682 29 52 C26.12805807 49.45491034 24.47097876 46.57809685 22.59375 43.25 C22.27216415 42.68352753 21.95057831 42.11705505 21.61924744 41.53341675 C20.57483003 39.69154148 19.53723491 37.84592806 18.5 36 C17.0654426 33.46000855 15.62834886 30.92145511 14.19140625 28.3828125 C13.83530777 27.75247101 13.47920929 27.12212952 13.11231995 26.47268677 C10.93384318 22.62313824 8.7185727 18.79839871 6.46484375 14.9921875 C5.94792969 14.11691406 5.43101562 13.24164063 4.8984375 12.33984375 C3.94236786 10.72679578 2.98034854 9.1172558 2.01171875 7.51171875 C0.94762495 5.70867093 -0.03620429 3.85859486 -1 2 C-0.67 1.34 -0.34 0.68 0 0 Z " fill="#A67F59" transform="translate(269,163)"/>
<path d="M0 0 C0.75 1.625 0.75 1.625 1 4 C0.319375 4.94875 -0.36125 5.8975 -1.0625 6.875 C-3.43657227 9.89150991 -3.43657227 9.89150991 -2.25 13.375 C-1.8375 14.24125 -1.425 15.1075 -1 16 C-1.804375 16.28875 -2.60875 16.5775 -3.4375 16.875 C-6.1326468 17.73262568 -6.1326468 17.73262568 -7 20 C-7.99 20 -8.98 20 -10 20 C-10.433125 21.3303125 -10.433125 21.3303125 -10.875 22.6875 C-11.83148748 25.50382424 -12.86798946 28.25083156 -14 31 C-14.66 31 -15.32 31 -16 31 C-16.4021875 32.3921875 -16.4021875 32.3921875 -16.8125 33.8125 C-17.91148371 36.76240366 -18.62418561 38.05615186 -21 40 C-20.40531708 35.59740335 -18.76242074 32.45779577 -16.54296875 28.6328125 C-16.19873367 28.03499969 -15.8544986 27.43718689 -15.49983215 26.82125854 C-14.40227402 24.91862595 -13.29512478 23.02178633 -12.1875 21.125 C-11.4544293 19.85844823 -10.72200115 18.59152433 -9.99023438 17.32421875 C-8.63311004 14.97566375 -7.27162151 12.62986229 -5.90698242 10.28564453 C-3.92215514 6.86587682 -1.95831457 3.43500063 0 0 Z " fill="#B3885F" transform="translate(48,182)"/>
<path d="M0 0 C5.34090752 8.01136128 3.10972785 19.96557296 1.64453125 28.95703125 C0.86377118 32.64316516 -0.28882025 35.65542139 -2 39 C-3.1064869 35.68053929 -2.85760708 34.62284776 -2.0625 31.3125 C-1.33089697 27.99363858 -0.8916549 25.02193745 -1 21.625 C-1 18.12819268 -0.62415762 16.92348371 1 14 C0.67 13.01 0.34 12.02 0 11 C-0.0685495 9.10529184 -0.08480372 7.2083166 -0.0625 5.3125 C-0.05347656 4.31863281 -0.04445313 3.32476562 -0.03515625 2.30078125 C-0.02355469 1.54152344 -0.01195312 0.78226563 0 0 Z " fill="#AD8359" transform="translate(359,255)"/>
<path d="M0 0 C1.6991892 1.4486017 3.31040092 2.92761654 4.87109375 4.5234375 C4.54109375 5.1834375 4.21109375 5.8434375 3.87109375 6.5234375 C1.87109375 5.1484375 1.87109375 5.1484375 -0.12890625 3.5234375 C-0.12890625 2.8634375 -0.12890625 2.2034375 -0.12890625 1.5234375 C-0.74765625 1.3790625 -1.36640625 1.2346875 -2.00390625 1.0859375 C-4.12890625 0.5234375 -4.12890625 0.5234375 -6.12890625 -0.4765625 C-10.19918591 -1.14368303 -13.71887306 -1.2115034 -17.4296875 0.72265625 C-20.92314933 3.25813038 -23.66181681 5.36785403 -25.12890625 9.5234375 C-25.42412565 12.29738583 -25.63602856 14.9934886 -25.75390625 17.7734375 C-25.79257813 18.51851562 -25.83125 19.26359375 -25.87109375 20.03125 C-25.96495733 21.8615899 -26.04800343 23.69247893 -26.12890625 25.5234375 C-26.45890625 25.5234375 -26.78890625 25.5234375 -27.12890625 25.5234375 C-27.23752458 22.81401357 -27.31649202 20.1089985 -27.37890625 17.3984375 C-27.41242188 16.63789063 -27.4459375 15.87734375 -27.48046875 15.09375 C-27.57311332 9.72036505 -26.65641336 6.80822596 -23.12890625 2.5234375 C-16.49130014 -3.93477385 -7.75121211 -5.37607005 0 0 Z " fill="#A98765" transform="translate(194.12890625,118.4765625)"/>
<path d="M0 0 C3.465 1.98 3.465 1.98 7 4 C7 9.61 7 15.22 7 21 C6.34 21.33 5.68 21.66 5 22 C4.67 21.01 4.34 20.02 4 19 C3.34 19.33 2.68 19.66 2 20 C1.8046875 13.9453125 1.8046875 13.9453125 2 12 C2.66 11.34 3.32 10.68 4 10 C4.6425235 7.93125966 4.6425235 7.93125966 5 6 C4.34 6 3.68 6 3 6 C3 5.34 3 4.68 3 4 C2.01 3.67 1.02 3.34 0 3 C0 2.01 0 1.02 0 0 Z " fill="#B98250" transform="translate(194,122)"/>
<path d="M0 0 C1.32 0 2.64 0 4 0 C4 1.65 4 3.3 4 5 C4.99 5.33 5.98 5.66 7 6 C7.35412344 7.32796291 7.68521554 8.66216607 8 10 C8.7425 10.680625 8.7425 10.680625 9.5 11.375 C12.58142304 14.7132083 12.12727051 19.67280279 12 24 C7.52368863 18.75191081 5.1244098 13.50600502 3 7 C2.03991451 4.64731527 1.02354171 2.32623116 0 0 Z " fill="#BE8853" transform="translate(292,202)"/>
<path d="M0 0 C10.56 0 21.12 0 32 0 C31.67 0.99 31.34 1.98 31 3 C16.15 2.505 16.15 2.505 1 2 C0.67 1.34 0.34 0.68 0 0 Z " fill="#B38055" transform="translate(231,323)"/>
<path d="M0 0 C2 3 2 3 2 6 C3.65 6.33 5.3 6.66 7 7 C7 7.66 7 8.32 7 9 C7.99 9 8.98 9 10 9 C10 10.65 10 12.3 10 14 C10.66 14 11.32 14 12 14 C12.33 15.98 12.66 17.96 13 20 C6.24388765 16.43007489 2.3412688 10.38233002 -0.4375 3.375 C-0.623125 2.59125 -0.80875 1.8075 -1 1 C-0.67 0.67 -0.34 0.34 0 0 Z " fill="#B98758" transform="translate(12,291)"/>
<path d="M0 0 C0.66 0 1.32 0 2 0 C2 1.65 2 3.3 2 5 C1.01 5.33 0.02 5.66 -1 6 C-1.0825 6.639375 -1.165 7.27875 -1.25 7.9375 C-2.52895503 13.15989969 -4.22741726 18.37513249 -8.25 22.0625 C-9.11625 22.5265625 -9.11625 22.5265625 -10 23 C-10.94215542 20.47368628 -11.13821578 19.35145295 -10.13549805 16.80175781 C-9.68215088 16.02670898 -9.22880371 15.25166016 -8.76171875 14.453125 C-8.02598633 13.18662109 -8.02598633 13.18662109 -7.27539062 11.89453125 C-6.75138672 11.02183594 -6.22738281 10.14914063 -5.6875 9.25 C-4.91889648 7.91775391 -4.91889648 7.91775391 -4.13476562 6.55859375 C-1.29333758 1.73520482 -1.29333758 1.73520482 0 0 Z " fill="#B68B62" transform="translate(73,139)"/>
<path d="M0 0 C4.46738659 2.23369329 6.69808106 4.5605849 9 9 C10.33035091 14.37924499 10.42828077 18.91217362 8 24 C5.875 26.875 5.875 26.875 4 29 C3.01 28.67 2.02 28.34 1 28 C1.66 28 2.32 28 3 28 C3 27.34 3 26.68 3 26 C3.66 25.67 4.32 25.34 5 25 C6.09697531 21.70907406 6.2371983 19.08887841 6.3125 15.625 C6.34988281 14.50351563 6.38726562 13.38203125 6.42578125 12.2265625 C5.91634166 8.36603866 4.55612018 6.85357795 2 4 C2 3.34 2 2.68 2 2 C1.34 2 0.68 2 0 2 C0 1.34 0 0.68 0 0 Z " fill="#AC8762" transform="translate(192,230)"/>
<path d="M0 0 C1.14662109 -0.01836914 1.14662109 -0.01836914 2.31640625 -0.03710938 C9.39523943 -0.05513696 15.60157248 1.33350046 22.125 4.1875 C18.50797162 5.39317613 16.45507874 4.54745693 12.84423828 3.67675781 C7.6239708 2.73750337 2.34862279 2.98319291 -2.9375 3.0625 C-4.66516602 3.07603516 -4.66516602 3.07603516 -6.42773438 3.08984375 C-9.24371193 3.11321286 -12.05924158 3.14597435 -14.875 3.1875 C-14.875 2.5275 -14.875 1.8675 -14.875 1.1875 C-9.8732974 0.18875747 -5.07678634 0.00423772 0 0 Z " fill="#A07C5E" transform="translate(183.875,2.8125)"/>
<path d="M0 0 C0.99 0 1.98 0 3 0 C1.45196735 5.76315769 -1.48278386 10.37456974 -4.625 15.375 C-5.140625 16.20644531 -5.65625 17.03789062 -6.1875 17.89453125 C-7.45286795 19.93317962 -8.72378866 21.96812882 -10 24 C-11.2088912 20.37332639 -10.67992092 19.50778047 -9.25 16.0625 C-8.73179688 14.78052734 -8.73179688 14.78052734 -8.203125 13.47265625 C-7.01920296 11.03946583 -5.65926716 9.12715451 -4 7 C-3.24844673 5.7633304 -2.51735097 4.5138707 -1.8125 3.25 C-1.214375 2.1775 -0.61625 1.105 0 0 Z " fill="#B68759" transform="translate(68,213)"/>
<path d="M0 0 C2.2477975 2.05233685 3.0022242 3.00667261 4 6 C4.66 6.33 5.32 6.66 6 7 C6 7.66 6 8.32 6 9 C6.66 9 7.32 9 8 9 C8.32613281 9.89203125 8.65226563 10.7840625 8.98828125 11.703125 C9.42527344 12.87359375 9.86226562 14.0440625 10.3125 15.25 C10.74175781 16.41015625 11.17101562 17.5703125 11.61328125 18.765625 C12.8264739 21.96919732 12.8264739 21.96919732 14.73046875 24.234375 C15.14941406 24.81703125 15.56835938 25.3996875 16 26 C15.67 26.99 15.34 27.98 15 29 C10.72558811 22.15639373 6.51062203 15.27804963 2.4375 8.3125 C2.07914063 7.7129248 1.72078125 7.11334961 1.3515625 6.49560547 C0.50471026 5.03174883 -0.25642593 3.51892481 -1 2 C-0.67 1.34 -0.34 0.68 0 0 Z " fill="#AD8458" transform="translate(217,73)"/>
<path d="M0 0 C1.98 0 3.96 0 6 0 C6.66 3.3 7.32 6.6 8 10 C8.66 10 9.32 10 10 10 C10.50615298 11.26839526 11.00469099 12.53983102 11.5 13.8125 C11.7784375 14.52019531 12.056875 15.22789063 12.34375 15.95703125 C13 18 13 18 13 21 C12.34 21 11.68 21 11 21 C10.34 18.69 9.68 16.38 9 14 C8.01 14 7.02 14 6 14 C5.67 10.7 5.34 7.4 5 4 C3.68 4.33 2.36 4.66 1 5 C0.67 3.35 0.34 1.7 0 0 Z " fill="#BC8450" transform="translate(234,43)"/>
<path d="M0 0 C5 1.66666667 10 3.33333333 15 5 C15 5.99 15 6.98 15 8 C16.32 8.33 17.64 8.66 19 9 C19 9.66 19 10.32 19 11 C21.475 11.495 21.475 11.495 24 12 C19.53429254 13.48856915 17.05095122 11.49732784 12.9375 9.5390625 C1.87027027 3.74054054 1.87027027 3.74054054 0 0 Z " fill="#B98657" transform="translate(25,311)"/>
<path d="M0 0 C0 1.32 0 2.64 0 4 C0.99 4 1.98 4 3 4 C2.67 4.99 2.34 5.98 2 7 C2.38932856 9.14255793 2.38932856 9.14255793 3 11 C3.66 11 4.32 11 5 11 C5.66 12.98 6.32 14.96 7 17 C7.66 17 8.32 17 9 17 C8.67 18.32 8.34 19.64 8 21 C7.51789063 20.2059375 7.03578125 19.411875 6.5390625 18.59375 C5.90742188 17.5728125 5.27578125 16.551875 4.625 15.5 C3.68527344 13.96859375 3.68527344 13.96859375 2.7265625 12.40625 C1.87191406 11.21515625 1.87191406 11.21515625 1 10 C0.34 10 -0.32 10 -1 10 C-5 3.25 -5 3.25 -5 1 C-2 0 -2 0 0 0 Z " fill="#BF8850" transform="translate(268,154)"/>
<path d="M0 0 C3.5625 1.5 3.5625 1.5 6 3 C5.67 3.66 5.34 4.32 5 5 C4.34 4.67 3.68 4.34 3 4 C-1.89398529 2.36867157 -8.1289574 2.13754254 -13 4 C-14.18391223 6.37625345 -14.18391223 6.37625345 -15 9 C-16.625 10.8125 -16.625 10.8125 -18 12 C-18.33 11.01 -18.66 10.02 -19 9 C-13.88895974 1.78441375 -8.96340705 -1.22657149 0 0 Z " fill="#C08A57" transform="translate(188,117)"/>
<path d="M0 0 C7.59 0 15.18 0 23 0 C23 0.66 23 1.32 23 2 C20.11734851 2.96088383 18.32337729 3.11670941 15.33203125 3.09765625 C14.43935547 3.09443359 13.54667969 3.09121094 12.62695312 3.08789062 C11.23379883 3.07532227 11.23379883 3.07532227 9.8125 3.0625 C8.87212891 3.05798828 7.93175781 3.05347656 6.96289062 3.04882812 C4.64186288 3.03704626 2.32096356 3.02059558 0 3 C0 2.01 0 1.02 0 0 Z " fill="#C69741" transform="translate(112,323)"/>
<path d="M0 0 C0.66 0 1.32 0 2 0 C3.6735337 2.95449913 5.33763985 5.9142018 7 8.875 C7.47695313 9.71675781 7.95390625 10.55851563 8.4453125 11.42578125 C8.89648438 12.23144531 9.34765625 13.03710938 9.8125 13.8671875 C10.44091797 14.98262939 10.44091797 14.98262939 11.08203125 16.12060547 C12 18 12 18 12 20 C11.01 20.33 10.02 20.66 9 21 C8.319375 19.5459375 8.319375 19.5459375 7.625 18.0625 C6.34213779 14.92920418 6.34213779 14.92920418 4 14 C3.855625 12.906875 3.71125 11.81375 3.5625 10.6875 C2.99309264 6.9547184 2.30558169 5.8067951 0 3 C0 2.01 0 1.02 0 0 Z " fill="#BC8857" transform="translate(292,137)"/>
<path d="M0 0 C2.18697502 2.79624958 3.99152813 5.63307872 5.6875 8.75 C6.12449219 9.54921875 6.56148438 10.3484375 7.01171875 11.171875 C7.33785156 11.77515625 7.66398437 12.3784375 8 13 C7.34 13 6.68 13 6 13 C6.3609375 13.47050781 6.721875 13.94101563 7.09375 14.42578125 C7.5578125 15.04839844 8.021875 15.67101562 8.5 16.3125 C8.9640625 16.92738281 9.428125 17.54226562 9.90625 18.17578125 C11 20 11 20 11 23 C10.34 23 9.68 23 9 23 C8.731875 22.38125 8.46375 21.7625 8.1875 21.125 C7.04443152 18.7004767 7.04443152 18.7004767 4 17 C3.74169824 14.96587366 3.4888127 12.92991864 3.31640625 10.88671875 C2.90648505 8.44237381 1.75118032 7.67504205 0 6 C-0.1875 2.8125 -0.1875 2.8125 0 0 Z " fill="#BF894E" transform="translate(328,198)"/>
<path d="M0 0 C0.33 1.32 0.66 2.64 1 4 C0.34 4 -0.32 4 -1 4 C-1.226875 4.78375 -1.45375 5.5675 -1.6875 6.375 C-3.40660933 11.12301625 -5.68084721 15.52102552 -8 20 C-8.66 20 -9.32 20 -10 20 C-10.061875 20.70125 -10.12375 21.4025 -10.1875 22.125 C-11.29201202 26.0332733 -13.28230992 28.00357248 -16 31 C-16 27.25829873 -14.8483918 25.59177031 -13.0078125 22.34375 C-12.38519531 21.23902344 -11.76257813 20.13429688 -11.12109375 18.99609375 C-10.45576667 17.83070775 -9.79040169 16.6653434 -9.125 15.5 C-8.46688832 14.33495134 -7.80932981 13.16959003 -7.15234375 12.00390625 C-2.37578427 3.5636764 -2.37578427 3.5636764 0 0 Z " fill="#AF8862" transform="translate(107,80)"/>
<path d="M0 0 C0.99 0 1.98 0 3 0 C3 0.66 3 1.32 3 2 C4.32 2 5.64 2 7 2 C7 2.66 7 3.32 7 4 C8.98 3.67 10.96 3.34 13 3 C13.33 3.99 13.66 4.98 14 6 C22.58 6 31.16 6 40 6 C40 6.33 40 6.66 40 7 C35.96154588 7.04962653 31.92321113 7.08582632 27.88452148 7.10986328 C26.51209417 7.11988926 25.13968805 7.13351356 23.76733398 7.15087891 C21.78899473 7.17527627 19.81049633 7.18544484 17.83203125 7.1953125 C16.64327393 7.20578613 15.4545166 7.21625977 14.22973633 7.22705078 C11.05263614 7.00370033 8.85656545 6.36116639 6 5 C6 4.34 6 3.68 6 3 C5.195625 2.87625 4.39125 2.7525 3.5625 2.625 C2.716875 2.41875 1.87125 2.2125 1 2 C0.67 1.34 0.34 0.68 0 0 Z " fill="#BA7F4E" transform="translate(38,317)"/>
<path d="M0 0 C0.33 0.66 0.66 1.32 1 2 C-8.38709677 16.51612903 -8.38709677 16.51612903 -14 20 C-14.66 20 -15.32 20 -16 20 C-16 19.34 -16 18.68 -16 18 C-15.34 18 -14.68 18 -14 18 C-13.67 16.68 -13.34 15.36 -13 14 C-12.071875 13.87625 -12.071875 13.87625 -11.125 13.75 C-8.86279272 13.20077462 -8.86279272 13.20077462 -7.875 11.1875 C-7.58625 10.465625 -7.2975 9.74375 -7 9 C-6.33333333 7.66666667 -5.66666667 6.33333333 -5 5 C-4.01 5 -3.02 5 -2 5 C-1.855625 4.360625 -1.71125 3.72125 -1.5625 3.0625 C-1 1 -1 1 0 0 Z " fill="#AE8153" transform="translate(355,294)"/>
<path d="M0 0 C0.66 0 1.32 0 2 0 C1.835 0.61875 1.67 1.2375 1.5 1.875 C0.07817256 10.76142151 0.90305001 16.46379538 6 24 C4.140625 23.703125 4.140625 23.703125 2 23 C-2.5478172 16.43093071 -2.95745833 9.86006486 -2 2 C-1.34 1.34 -0.68 0.68 0 0 Z " fill="#AE8861" transform="translate(42,261)"/>
<path d="M0 0 C1 3 1 3 -0.1796875 5.48046875 C-1.01886719 6.82044922 -1.01886719 6.82044922 -1.875 8.1875 C-2.42929687 9.08855469 -2.98359375 9.98960937 -3.5546875 10.91796875 C-4.03164063 11.60503906 -4.50859375 12.29210937 -5 13 C-5.33 13 -5.66 13 -6 13 C-6.2493357 11.39884424 -6.47378648 9.79379841 -6.6875 8.1875 C-6.81511719 7.29417969 -6.94273438 6.40085938 -7.07421875 5.48046875 C-7 3 -7 3 -5.76953125 1.17578125 C-4 0 -4 0 0 0 Z " fill="#CD8646" transform="translate(57,235)"/>
<path d="M0 0 C7.92 0 15.84 0 24 0 C24 0.99 24 1.98 24 3 C22.906875 2.835 21.81375 2.67 20.6875 2.5 C10.19092559 1.26619213 2.00343504 2.43756844 -8 6 C-8 5.34 -8 4.68 -8 4 C-4.77208445 1.8480563 -3.71599191 1.79913557 0 2 C0 1.34 0 0.68 0 0 Z " fill="#BD8755" transform="translate(170,5)"/>
<path d="M0 0 C1.32 0 2.64 0 4 0 C3.05959669 3.38545193 2.04230458 4.96079088 -0.5625 7.375 C-5.06705144 9.50442432 -8.2290122 8.97540195 -13 8 C-10.02999718 6.01999812 -7.05180034 4.53121208 -3.83984375 3 C-1.83260604 2.02166889 -1.83260604 2.02166889 0 0 Z " fill="#B9855D" transform="translate(321,283)"/>
<path d="M0 0 C0.75 1.5625 0.75 1.5625 1 4 C0.38125 5.0209375 -0.2375 6.041875 -0.875 7.09375 C-3.33644739 11.22762253 -4.06330554 15.2235445 -4.75 19.9375 C-4.93755859 21.10635742 -4.93755859 21.10635742 -5.12890625 22.29882812 C-5.43172582 24.19727392 -5.71764805 26.09840238 -6 28 C-6.66 28 -7.32 28 -8 28 C-7.79380014 17.42757096 -4.7313014 9.33056648 0 0 Z " fill="#B0845F" transform="translate(14,241)"/>
<path d="M0 0 C0.66 0 1.32 0 2 0 C5 4.38461538 5 4.38461538 5 7 C5.66 7 6.32 7 7 7 C7 7.66 7 8.32 7 9 C7.66 9.33 8.32 9.66 9 10 C9.69040574 11.65697379 10.3530635 13.3255761 11 15 C11.53625 15.804375 12.0725 16.60875 12.625 17.4375 C14.26620816 20.4961152 14.23868338 22.57887154 14 26 C10.97861831 21.46792746 8.47983882 16.65557426 5.875 11.875 C5.03001953 10.33392578 5.03001953 10.33392578 4.16796875 8.76171875 C3.63558594 7.78589844 3.10320312 6.81007812 2.5546875 5.8046875 C1.81968018 4.45866455 1.81968018 4.45866455 1.06982422 3.08544922 C0 1 0 1 0 0 Z " fill="#AD8561" transform="translate(312,240)"/>
<path d="M0 0 C3.49107379 1.16369126 3.85222763 1.88973538 5.6875 4.9375 C6.34298828 6.00291016 6.34298828 6.00291016 7.01171875 7.08984375 C8 9 8 9 8 11 C8.66 11 9.32 11 10 11 C10.82011312 12.55851755 11.63076213 14.12201716 12.4375 15.6875 C12.88996094 16.55761719 13.34242188 17.42773438 13.80859375 18.32421875 C14.95991928 20.90998264 15.56320753 23.21356528 16 26 C13.351338 23.59681407 11.67146794 21.00511973 9.86328125 17.9296875 C9.28642578 16.95128906 8.70957031 15.97289062 8.11523438 14.96484375 C7.52033203 13.94519531 6.92542969 12.92554688 6.3125 11.875 C5.70599609 10.84761719 5.09949219 9.82023437 4.47460938 8.76171875 C0 1.14129289 0 1.14129289 0 0 Z " fill="#AB825A" transform="translate(200,47)"/>
<path d="M0 0 C3.02907074 1.51453537 3.57351392 4.17476839 4.90234375 7.1875 C5.93798073 9.33914099 5.93798073 9.33914099 9 10 C9.33 11.98 9.66 13.96 10 16 C6.07365624 15.10255 4.35585554 13.496338 2.1875 10.25 C0.12481005 6.71764345 -0.51781218 4.14249747 0 0 Z " fill="#B88B5C" transform="translate(167,195)"/>
<path d="M0 0 C1.67739258 0.00966797 1.67739258 0.00966797 3.38867188 0.01953125 C5.13954102 0.04466797 5.13954102 0.04466797 6.92578125 0.0703125 C8.69405273 0.08384766 8.69405273 0.08384766 10.49804688 0.09765625 C13.41166151 0.12124827 16.32487017 0.1541671 19.23828125 0.1953125 C13.21977854 3.47205287 7.78727728 3.37413179 1.23828125 2.1953125 C-2.09682556 2.10490298 -5.4261961 2.13598502 -8.76171875 2.1953125 C-5.31537993 -0.10224672 -4.05103484 -0.04112726 0 0 Z " fill="#CB874E" transform="translate(295.76171875,290.8046875)"/>
<path d="M0 0 C5.75 1.625 5.75 1.625 8 5 C8.144375 6.093125 8.28875 7.18625 8.4375 8.3125 C9.0153616 12.1007038 10.27184247 14.62223756 12 18 C11.67 18.66 11.34 19.32 11 20 C9.72710095 17.79283537 8.4566395 15.58432515 7.1875 13.375 C6.83107422 12.75753906 6.47464844 12.14007813 6.10742188 11.50390625 C3.94086828 7.72734494 1.9095701 3.91552228 0 0 Z " fill="#A98156" transform="translate(238,112)"/>
<path d="M0 0 C0.66 0.33 1.32 0.66 2 1 C-2.62 9.25 -7.24 17.5 -12 26 C-12.66 25.67 -13.32 25.34 -14 25 C-13.34 23.35 -12.68 21.7 -12 20 C-11.34 20 -10.68 20 -10 20 C-9.731875 18.741875 -9.46375 17.48375 -9.1875 16.1875 C-8.37359503 12.87955765 -7.59821204 11.25931481 -5 9 C-4.28552357 6.89667109 -4.28552357 6.89667109 -4 5 C-3.34 5 -2.68 5 -2 5 C-1.34 3.35 -0.68 1.7 0 0 Z " fill="#AD8A63" transform="translate(96,167)"/>
<path d="M0 0 C0.66 0 1.32 0 2 0 C0.87548273 2.9719385 -0.22293791 5.33440687 -2 8 C-2.5827119 9.54766142 -3.12264187 11.11192222 -3.625 12.6875 C-3.88539063 13.49574219 -4.14578125 14.30398437 -4.4140625 15.13671875 C-4.70410156 16.05904297 -4.70410156 16.05904297 -5 17 C-5.66 17 -6.32 17 -7 17 C-7.33 17.66 -7.66 18.32 -8 19 C-8.66 19 -9.32 19 -10 19 C-10.33 18.01 -10.66 17.02 -11 16 C-7.25 13 -7.25 13 -5 13 C-5.33 11.35 -5.66 9.7 -6 8 C-5.01 7.67 -4.02 7.34 -3 7 C-1.83046584 4.57616923 -1.83046584 4.57616923 -1 2 C-0.67 1.34 -0.34 0.68 0 0 Z " fill="#C08B56" transform="translate(159,55)"/>
<path d="M0 0 C3.59255694 3.3541418 5.77835962 7.35582393 8.25 11.5625 C8.72179687 12.34302734 9.19359375 13.12355469 9.6796875 13.92773438 C10.12054688 14.67474609 10.56140625 15.42175781 11.015625 16.19140625 C11.62325684 17.21536499 11.62325684 17.21536499 12.24316406 18.26000977 C12.61779785 19.12130493 12.61779785 19.12130493 13 20 C12.67 20.66 12.34 21.32 12 22 C10.5 20.6875 10.5 20.6875 9 19 C9 18.01 9 17.02 9 16 C8.34 16 7.68 16 7 16 C0 4.17241379 0 4.17241379 0 0 Z " fill="#B2875B" transform="translate(315,176)"/>
<path d="M0 0 C1 3 1 3 0 6 C-0.66 6 -1.32 6 -2 6 C-2.2475 6.845625 -2.495 7.69125 -2.75 8.5625 C-3.70257298 11.1820757 -4.61178138 13.20045638 -6 15.5625 C-8.02712861 18.81981353 -8.02712861 18.81981353 -9.0625 21.875 C-9.371875 22.57625 -9.68125 23.2775 -10 24 C-10.99 24.33 -11.98 24.66 -13 25 C-11.40799441 19.14985897 -8.44263127 14.29481514 -5.375 9.125 C-4.859375 8.24585937 -4.34375 7.36671875 -3.8125 6.4609375 C-2.54664427 4.3042944 -1.27571593 2.15082012 0 0 Z " fill="#A98964" transform="translate(89,111)"/>
<path d="M0 0 C3.24822479 2.77687356 5.12183056 6.39061382 7.1875 10.0625 C7.55552734 10.69994141 7.92355469 11.33738281 8.30273438 11.99414062 C11 16.74312964 11 16.74312964 11 19 C7.3249148 17.7749716 7.14523895 16.90838352 5.4375 13.5625 C4.08610241 10.93969409 3.0968741 9.0968741 1 7 C0.59952556 4.67724823 0.2602896 2.34260643 0 0 Z " fill="#AE855F" transform="translate(304,157)"/>
<path d="M0 0 C0.29363808 4.99184736 0.07836372 7.97444744 -3 12 C-3.99 12.495 -3.99 12.495 -5 13 C-5.66 12.34 -6.32 11.68 -7 11 C-6.67 10.01 -6.34 9.02 -6 8 C-5.34 8 -4.68 8 -4 8 C-4.061875 7.05125 -4.12375 6.1025 -4.1875 5.125 C-4.125625 4.09375 -4.06375 3.0625 -4 2 C-1 0 -1 0 0 0 Z " fill="#B38758" transform="translate(201,194)"/>
<path d="M0 0 C-5.20391664 3.75248411 -9.68688724 6.65678452 -16 8 C-15.375 6.125 -15.375 6.125 -14 4 C-12.02111039 3.27306096 -10.02045442 2.60183749 -8 2 C-7.67 1.34 -7.34 0.68 -7 0 C-3.86650268 -1.04449911 -3.01031744 -0.93423645 0 0 Z " fill="#B07F52" transform="translate(339,315)"/>
<path d="M0 0 C2.43794998 1.64561623 3.56464839 2.48938498 5 5 C5.72996415 10.59875415 6.3815166 17.16112944 3 22 C2.01 22.33 1.02 22.66 0 23 C-0.33 22.01 -0.66 21.02 -1 20 C-0.34 19.505 0.32 19.01 1 18.5 C3.34574571 15.56781786 3.45539656 13.66447591 3.26953125 9.9609375 C2.91933681 7.41314609 2.1205461 5.30700668 1 3 C0.67 2.01 0.34 1.02 0 0 Z " fill="#C28853" transform="translate(194,234)"/>
<path d="M0 0 C4.29 0.66 8.58 1.32 13 2 C13 2.99 13 3.98 13 5 C14.65 5.33 16.3 5.66 18 6 C18.33 6.99 18.66 7.98 19 9 C16.525 8.505 16.525 8.505 14 8 C14 7.34 14 6.68 14 6 C13.360625 5.9175 12.72125 5.835 12.0625 5.75 C7.79458483 4.70479628 3.96892333 2.85908174 0 1 C0 0.67 0 0.34 0 0 Z " fill="#C08858" transform="translate(195,6)"/>
<path d="M0 0 C2.91367217 2.59892364 4.7535549 5.60046677 6.75 8.9375 C7.38421875 9.97777344 8.0184375 11.01804688 8.671875 12.08984375 C10 15 10 15 9.703125 17.37890625 C9.35507812 18.18134766 9.35507812 18.18134766 9 19 C7.67492391 16.96560073 6.36518622 14.92366893 5.0625 12.875 C4.68931641 12.30523437 4.31613281 11.73546875 3.93164062 11.1484375 C1.58971107 7.43510776 0.41825813 4.36847382 0 0 Z " fill="#AF865B" transform="translate(281,117)"/>
<path d="M0 0 C0.99 1.32 1.98 2.64 3 4 C1.68 4.33 0.36 4.66 -1 5 C-0.814375 6.0725 -0.62875 7.145 -0.4375 8.25 C0.14964371 13.28266033 0.14964371 13.28266033 -1 16 C-1.66 16.33 -2.32 16.66 -3 17 C-3.25166992 10.70825188 -2.87021796 5.74043592 0 0 Z " fill="#C5864D" transform="translate(12,249)"/>
<path d="M0 0 C0.33 0 0.66 0 1 0 C1.11044961 6.73742646 0.70132913 13.29980211 0 20 C-2 18 -2 18 -2.265625 15.390625 C-2.21383648 4.98113208 -2.21383648 4.98113208 0 0 Z " fill="#B48452" transform="translate(201,144)"/>
<path d="M0 0 C0.66 0 1.32 0 2 0 C1.58742287 5.50102837 -0.54722675 9.76201664 -4 14 C-4.66 14 -5.32 14 -6 14 C-2.90009699 3.90882638 -2.90009699 3.90882638 0 0 Z " fill="#C58B54" transform="translate(19,235)"/>
<path d="M0 0 C1.03864166 3.11592499 1.09036928 4.0262656 0 7 C-0.99 7.495 -0.99 7.495 -2 8 C-2.65555119 10.52733235 -2.65555119 10.52733235 -3 13 C-3.99 13 -4.98 13 -6 13 C-6.103125 13.61875 -6.20625 14.2375 -6.3125 14.875 C-7 17 -7 17 -10 19 C-8.40376856 14.60616294 -6.21975667 10.71004193 -3.875 6.6875 C-3.50246094 6.04232422 -3.12992188 5.39714844 -2.74609375 4.73242188 C-1.83367787 3.15324055 -0.91724491 1.57638136 0 0 Z " fill="#AF8D63" transform="translate(25,222)"/>
<path d="M0 0 C15.25835371 8.77506112 15.25835371 8.77506112 17 14 C16.34 14 15.68 14 15 14 C15 13.34 15 12.68 15 12 C14.195625 11.62875 14.195625 11.62875 13.375 11.25 C10.4176018 9.69347463 7.70275949 7.96564327 5 6 C5 5.34 5 4.68 5 4 C3.35 3.67 1.7 3.34 0 3 C0 2.01 0 1.02 0 0 Z " fill="#AA8564" transform="translate(208,8)"/>
<path d="M0 0 C5.77807024 -0.2358396 10.51324804 0.13216954 16 2 C16 2.33 16 2.66 16 3 C10.39 3 4.78 3 -1 3 C-0.67 2.01 -0.34 1.02 0 0 Z " fill="#C09349" transform="translate(263,323)"/>
<path d="M0 0 C0.99 0 1.98 0 3 0 C1.80100302 3.0831351 0.52299523 6.06279492 -1 9 C-1.66 9 -2.32 9 -3 9 C-3.33 11.64 -3.66 14.28 -4 17 C-5.32 17 -6.64 17 -8 17 C-6.78373304 12.46664134 -4.98798418 9.33495923 -2.12109375 5.7109375 C-0.88475673 3.82412351 -0.42779682 2.2014713 0 0 Z " fill="#C48E54" transform="translate(87,178)"/>
<path d="M0 0 C2.03833424 1.2739589 4.03852126 2.61061923 6 4 C6 4.66 6 5.32 6 6 C6.598125 6.0825 7.19625 6.165 7.8125 6.25 C10.5966296 7.20455872 11.43311142 8.57132271 13 11 C12.67 11.66 12.34 12.32 12 13 C10.2925002 11.71937515 8.62626404 10.38232443 7 9 C7 8.34 7 7.68 7 7 C6.01 7 5.02 7 4 7 C4 6.34 4 5.68 4 5 C2.68 4.34 1.36 3.68 0 3 C0 2.01 0 1.02 0 0 Z " fill="#BB8752" transform="translate(217,16)"/>
<path d="M0 0 C1.70840281 1.63412443 2.93453047 2.86906094 4 5 C4.99 5.33 5.98 5.66 7 6 C7.45375 6.474375 7.9075 6.94875 8.375 7.4375 C10.38576214 9.37092514 12.39052205 10.0831564 15 11 C15 11.66 15 12.32 15 13 C11.83245565 12.37641185 9.62021505 11.27813869 6.9375 9.5 C4.54341042 7.91925755 2.75440404 6.91813468 0 6 C0 4.02 0 2.04 0 0 Z " fill="#C28B56" transform="translate(41,279)"/>
<path d="M0 0 C0.99 0 1.98 0 3 0 C1.43358249 4.30764815 -0.68336156 8.06171464 -3 12 C-4.41116678 8.79280276 -3.89413879 7.71609948 -2.625 4.3125 C-1 1 -1 1 0 0 Z " fill="#BC8B5D" transform="translate(115,132)"/>
<path d="M0 0 C2.77645418 3.49692647 5.02239005 7.26646134 7.25 11.125 C7.62640625 11.75792969 8.0028125 12.39085937 8.390625 13.04296875 C9.32444588 14.65998946 10.16995623 16.32733603 11 18 C10.67 18.66 10.34 19.32 10 20 C9.67 19.01 9.34 18.02 9 17 C8.01 16.67 7.02 16.34 6 16 C5.26953125 14.15234375 5.26953125 14.15234375 4.8125 11.9375 C4.65394531 11.20402344 4.49539062 10.47054687 4.33203125 9.71484375 C4.22246094 9.14894531 4.11289063 8.58304688 4 8 C3.34 8 2.68 8 2 8 C0.74335022 5.09399739 0 3.20395416 0 0 Z " fill="#A7855F" transform="translate(240,45)"/>
<path d="M0 0 C0.6875 1.8125 0.6875 1.8125 1 4 C-0.375 5.625 -0.375 5.625 -2 7 C-2.33 7.66 -2.66 8.32 -3 9 C-3.66 9 -4.32 9 -5 9 C-5.33 10.98 -5.66 12.96 -6 15 C-6.66 14.67 -7.32 14.34 -8 14 C-8 12.35 -8 10.7 -8 9 C-7.01 8.67 -6.02 8.34 -5 8 C-4.30341637 6.34561387 -3.63903117 4.67745682 -3 3 C-1.375 1.1875 -1.375 1.1875 0 0 Z " fill="#C38953" transform="translate(97,163)"/>
<path d="M0 0 C4.38889325 0.66498383 7.9811485 2.18757677 12 4 C12 4.66 12 5.32 12 6 C13.65 6.33 15.3 6.66 17 7 C13.15205819 8.28264727 12.10727788 7.43727514 8.5 5.75 C7.5409375 5.31171875 6.581875 4.8734375 5.59375 4.421875 C3.25626041 3.14048011 1.73483542 1.99271636 0 0 Z " fill="#AB8360" transform="translate(32,316)"/>
<path d="M0 0 C0.33 0.66 0.66 1.32 1 2 C-0.21484375 4.6015625 -0.21484375 4.6015625 -1.9375 7.625 C-2.78634766 9.12933594 -2.78634766 9.12933594 -3.65234375 10.6640625 C-4.09707031 11.43492187 -4.54179688 12.20578125 -5 13 C-5.33 13 -5.66 13 -6 13 C-6 10.69 -6 8.38 -6 6 C-5.38125 5.7525 -4.7625 5.505 -4.125 5.25 C-1.64931313 3.79371361 -1.04874998 2.62187494 0 0 Z " fill="#B78F66" transform="translate(50,248)"/>
<path d="M0 0 C1.98 0 3.96 0 6 0 C6 0.66 6 1.32 6 2 C8.97 2 11.94 2 15 2 C15 2.33 15 2.66 15 3 C9.39 3 3.78 3 -2 3 C-1.34 2.67 -0.68 2.34 0 2 C0 1.34 0 0.68 0 0 Z " fill="#A08863" transform="translate(135,323)"/>
<path d="M0 0 C0.78117188 0.19851562 1.56234375 0.39703125 2.3671875 0.6015625 C4.84083607 1.33221314 7.21127209 2.18815514 9.5625 3.25 C5.68851645 4.54132785 2.74261214 3.66113572 -1.125 2.8125 C-1.82689453 2.66490234 -2.52878906 2.51730469 -3.25195312 2.36523438 C-4.98194194 2.0004068 -6.70992963 1.62611311 -8.4375 1.25 C-5.26108945 -0.68033566 -3.58594053 -0.91979064 0 0 Z " fill="#AA825D" transform="translate(196.4375,3.75)"/>
<path d="M0 0 C0.99 0 1.98 0 3 0 C3.33 1.32 3.66 2.64 4 4 C4.66 4 5.32 4 6 4 C6 6.31 6 8.62 6 11 C2.90407165 7.4912812 1.25805377 4.50802601 0 0 Z " fill="#B08254" transform="translate(306,229)"/>
<path d="M0 0 C0.66 0 1.32 0 2 0 C4.63365987 4.9221313 6.64475824 9.57903298 8 15 C5.31874582 12.61753661 3.88576541 10.1454496 2.3125 6.9375 C1.87550781 6.05964844 1.43851562 5.18179688 0.98828125 4.27734375 C0 2 0 2 0 0 Z " fill="#C18651" transform="translate(279,178)"/>
<path d="M0 0 C2.36572901 2.15619302 3.7551861 4.17726207 5.125 7.0625 C5.45757812 7.75472656 5.79015625 8.44695312 6.1328125 9.16015625 C6.41898437 9.76730469 6.70515625 10.37445313 7 11 C7.33 11.66 7.66 12.32 8 13 C7.01 13 6.02 13 5 13 C4.71125 12.360625 4.4225 11.72125 4.125 11.0625 C3.17176549 8.84793921 3.17176549 8.84793921 1 8 C0.40644386 5.35139573 0.25790731 2.70802678 0 0 Z " fill="#C28753" transform="translate(257,78)"/>
<path d="M0 0 C0.66 0 1.32 0 2 0 C5 4.38461538 5 4.38461538 5 7 C5.66 7 6.32 7 7 7 C7 7.66 7 8.32 7 9 C7.66 9.33 8.32 9.66 9 10 C9 10.66 9 11.32 9 12 C8.01 12 7.02 12 6 12 C4.02 8.04 2.04 4.08 0 0 Z " fill="#AE7F55" transform="translate(312,240)"/>
<path d="M0 0 C0 0.99 0 1.98 0 3 C0.66 3 1.32 3 2 3 C2 3.66 2 4.32 2 5 C-2.29 4.01 -6.58 3.02 -11 2 C-11 1.67 -11 1.34 -11 1 C-7.26562152 0.12132271 -3.83225427 -0.08912219 0 0 Z " fill="#C6905B" transform="translate(192,229)"/>
<path d="M0 0 C1 1.33333333 2 2.66666667 3 4 C3.804375 4.9590625 3.804375 4.9590625 4.625 5.9375 C6.19559024 8.29338535 6.61347732 10.2170367 7 13 C6.34 13 5.68 13 5 13 C2.25780133 9.65119374 0.13846219 6.32923704 -0.3125 2 C-0.209375 1.34 -0.10625 0.68 0 0 Z " fill="#C98A55" transform="translate(203,45)"/>
<path d="M0 0 C0 0.66 0 1.32 0 2 C-2.75078884 2.91692961 -4.35948913 3.10886083 -7.1875 3.0625 C-9.0746875 3.0315625 -9.0746875 3.0315625 -11 3 C-8.21756596 -1.17365106 -4.53441502 -0.22300402 0 0 Z " fill="#CFA635" transform="translate(105,323)"/>
<path d="M0 0 C2.61273988 1.30636994 2.97236124 2.28409758 4 5 C4.125 8.25 4.125 8.25 4 11 C2.29159719 9.36587557 1.06546953 8.13093906 0 6 C-0.039992 4.00039988 -0.04346799 1.99952758 0 0 Z " fill="#AB835D" transform="translate(167,195)"/>
<path d="M0 0 C2.52940738 3.13164723 4.44920018 6.27808042 6 10 C5.6875 12.375 5.6875 12.375 5 14 C1.87680501 9.59913433 0.96396425 5.20540698 0 0 Z " fill="#B08462" transform="translate(353,241)"/>
<path d="M0 0 C6 7.71428571 6 7.71428571 6 11 C5.34 11 4.68 11 4 11 C1.18236593 8.18236593 0.05391197 6.71433365 -0.25 2.6875 C-0.1675 1.800625 -0.085 0.91375 0 0 Z " fill="#B38559" transform="translate(328,198)"/>
<path d="M0 0 C0.66 0.33 1.32 0.66 2 1 C2 3.97 2 6.94 2 10 C1.01 10.495 1.01 10.495 0 11 C-1.28571429 3.57142857 -1.28571429 3.57142857 0 0 Z " fill="#B38053" transform="translate(199,173)"/>
<path d="M0 0 C1.485 0.99 1.485 0.99 3 2 C3 2.66 3 3.32 3 4 C4.32 4.33 5.64 4.66 7 5 C6.34 6.32 5.68 7.64 5 9 C2.9754262 7.06745228 1.57894208 5.36841312 0 3 C0 2.01 0 1.02 0 0 Z " fill="#B08358" transform="translate(233,102)"/>
<path d="M0 0 C0.99 0.33 1.98 0.66 3 1 C1.35 4.3 -0.3 7.6 -2 11 C-3.13643966 7.59068103 -2.86747764 6.99664544 -1.5625 3.8125 C-1.13130859 2.73935547 -1.13130859 2.73935547 -0.69140625 1.64453125 C-0.46324219 1.10183594 -0.23507813 0.55914062 0 0 Z " fill="#B48558" transform="translate(54,237)"/>
<path d="M0 0 C0.66 0 1.32 0 2 0 C1.34 3.63 0.68 7.26 0 11 C-1.86870807 7.26258387 -2.41702384 5.96172649 -2 2 C-1.34 1.34 -0.68 0.68 0 0 Z " fill="#BA926A" transform="translate(42,261)"/>
<path d="M0 0 C0.66 0.66 1.32 1.32 2 2 C-0.97 6.95 -0.97 6.95 -4 12 C-5 9 -5 9 -4.0625 6.8125 C-3.711875 6.214375 -3.36125 5.61625 -3 5 C-2.34 5 -1.68 5 -1 5 C-0.67 3.35 -0.34 1.7 0 0 Z " fill="#B08662" transform="translate(80,194)"/>
<path d="M0 0 C0.66 0 1.32 0 2 0 C2.83848804 1.45537568 3.67063934 2.91440373 4.5 4.375 C5.19609375 5.59316406 5.19609375 5.59316406 5.90625 6.8359375 C7 9 7 9 7 11 C6.34 11 5.68 11 5 11 C3.7109375 9.35546875 3.7109375 9.35546875 2.375 7.1875 C1.92898438 6.47980469 1.48296875 5.77210938 1.0234375 5.04296875 C0 3 0 3 0 0 Z " fill="#AC825D" transform="translate(292,137)"/>
<path d="M0 0 C3.465 1.98 3.465 1.98 7 4 C6.01 5.485 6.01 5.485 5 7 C4.34 6.67 3.68 6.34 3 6 C3 5.34 3 4.68 3 4 C2.01 3.67 1.02 3.34 0 3 C0 2.01 0 1.02 0 0 Z " fill="#C08E4D" transform="translate(194,122)"/>
<path d="M0 0 C0.33 0 0.66 0 1 0 C1.1953125 6.0546875 1.1953125 6.0546875 1 8 C0.34 8.66 -0.32 9.32 -1 10 C-2.1875 8.375 -2.1875 8.375 -3 6 C-1.625 2.75 -1.625 2.75 0 0 Z " fill="#C8944B" transform="translate(123,116)"/>
<path d="M0 0 C0 3.93169105 -1.39419615 5.16427228 -4 8 C-4.66 8 -5.32 8 -6 8 C-5.67 6.35 -5.34 4.7 -5 3 C-4.01 3 -3.02 3 -2 3 C-2 2.34 -2 1.68 -2 1 C-1.34 0.67 -0.68 0.34 0 0 Z " fill="#C78550" transform="translate(102,97)"/>
<path d="M0 0 C1.98 0 3.96 0 6 0 C5.67 1.32 5.34 2.64 5 4 C3.68 4.33 2.36 4.66 1 5 C0.67 3.35 0.34 1.7 0 0 Z " fill="#C7894E" transform="translate(234,43)"/>
<path d="M0 0 C0.66 0.33 1.32 0.66 2 1 C1.33035714 8.09821429 1.33035714 8.09821429 -2 11 C-1.85957123 9.35369672 -1.71250671 7.70795821 -1.5625 6.0625 C-1.48128906 5.14597656 -1.40007813 4.22945312 -1.31640625 3.28515625 C-1 1 -1 1 0 0 Z " fill="#C59055" transform="translate(61,160)"/>
<path d="M0 0 C5.75 1.625 5.75 1.625 8 5 C7.01 6.485 7.01 6.485 6 8 C6 6.68 6 5.36 6 4 C4.35 3.67 2.7 3.34 1 3 C0.67 2.01 0.34 1.02 0 0 Z " fill="#BB8450" transform="translate(238,112)"/>
<path d="M0 0 C0.8353125 0.37125 0.8353125 0.37125 1.6875 0.75 C0.78 1.348125 -0.1275 1.94625 -1.0625 2.5625 C-3.54151481 4.23106766 -5.94567911 5.92936855 -8.3125 7.75 C-7.98035849 4.65001254 -7.2579988 3.6954988 -5 1.4375 C-2.3125 -0.25 -2.3125 -0.25 0 0 Z " fill="#B38C6D" transform="translate(175.3125,39.25)"/>
<path d="M0 0 C0.99 0 1.98 0 3 0 C3.33 1.98 3.66 3.96 4 6 C2.35 5.01 0.7 4.02 -1 3 C-0.67 2.01 -0.34 1.02 0 0 Z " fill="#BB8C4E" transform="translate(21,305)"/>
<path d="M0 0 C0.66 0.33 1.32 0.66 2 1 C1.67 1.66 1.34 2.32 1 3 C1.66 3.33 2.32 3.66 3 4 C1.625 6 1.625 6 0 8 C-0.66 8 -1.32 8 -2 8 C-1.47731534 5.23723823 -0.89130413 2.6739124 0 0 Z " fill="#C6844F" transform="translate(69,151)"/>
<path d="M0 0 C0 0.33 0 0.66 0 1 C-0.94875 1.309375 -1.8975 1.61875 -2.875 1.9375 C-5.86080408 2.87394742 -5.86080408 2.87394742 -8 4 C-8.99 3.34 -9.98 2.68 -11 2 C-7.36576791 -0.32590854 -4.22911669 -0.16265833 0 0 Z " fill="#C6864D" transform="translate(187,231)"/>
<path d="M0 0 C0.93065133 2.60582371 1.14917407 3.64198224 0.0625 6.25 C-0.4634375 7.11625 -0.4634375 7.11625 -1 8 C-1.99 7.67 -2.98 7.34 -4 7 C-2.68 4.69 -1.36 2.38 0 0 Z " fill="#B08363" transform="translate(130,40)"/>
<path d="M0 0 C0.66 0.33 1.32 0.66 2 1 C1.1875 3.4375 1.1875 3.4375 0 6 C-0.99 6.33 -1.98 6.66 -3 7 C-1.125 1.125 -1.125 1.125 0 0 Z " fill="#AF8457" transform="translate(79,129)"/>
</svg>
